<svg xmlns="http://www.w3.org/2000/svg" viewBox="0 0 256 256.12"><title>Recurso 2</title><g id="e422b304-05d7-4503-99e2-ca3fd6dd3f81" data-name="Capa 2"><g id="a3abd3c2-d75d-4f1a-886f-c5b973cfe97f" data-name="Capa 1"><rect width="256" height="256" style="fill:#ffb78c"/><path d="M102.93,168.9a19.44,19.44,0,0,1,.49,5.27c0,.38,0,.65.52.54a61,61,0,0,1,13.68-1.17,1.68,1.68,0,0,0,1.43-.61A20.26,20.26,0,0,1,121,171a5.44,5.44,0,0,1,3.4-1.33c3.88-.26,7.78-.37,11.64-.88,1.72-.22,3.38-.81,5.12-.94a12.29,12.29,0,0,1,1.48-.06c1.77.09,2.46.71,2.84,2.47,0,.11,0,.22.16.27v1.74c-.86,2.2-2.75,2.65-4.78,2.77-1.67.09-3.36,0-5,0a11.84,11.84,0,0,0-2.46.18c1.59,1.35,1.49,3,.92,4.68a3.94,3.94,0,0,1-2.72,2.48c-.51.17-.73.32-.41.93a2.1,2.1,0,0,1-.91,3,9.88,9.88,0,0,1-8.69.81,6.9,6.9,0,0,1-2.71-2,1,1,0,0,0-1.27-.31c-3.93,1.2-7.7,2.83-11.58,4.18a43.13,43.13,0,0,1-11.9,2.31,13.43,13.43,0,0,1-3.63-.28,4,4,0,0,1-3-2.43,9.67,9.67,0,0,1-.92-3.85c.33,0,.43.34.67.47a6.61,6.61,0,0,1,.53,1.91,4,4,0,0,0,3.77,3.3,7.85,7.85,0,0,0,.84,0h1.81c.44,0,.88,0,1.33,0,5.82-.46,11.23-2.42,16.58-4.59,1.64-.59,3.28-1.18,4.94-1.69,1.42-.43,1.52-.4,2.49.46,0,0,0,0,0,0a8.14,8.14,0,0,0-.21-3.4,9.57,9.57,0,0,1,1.26-7.75,1,1,0,0,1,.44-.4.5.5,0,0,1,.57.06.43.43,0,0,1,.09.55c-.24.5-.6.93-.86,1.42a7.76,7.76,0,0,0-.78,2.7q0,1.13,0,2.25c.17,1.16.56,2.18,1.89,2.38,1.68.26,2.36-.22,3.58-1.76a3,3,0,0,0,.27-.54,11.34,11.34,0,0,0,1.41-5.6,4.15,4.15,0,0,0-.77-2.63,2.93,2.93,0,0,0-4.07-.88,9.25,9.25,0,0,0-2.61,2.29,2.54,2.54,0,0,1-2.4,1,48.84,48.84,0,0,0-9.11.53c-1.2.17-2.41.36-3.61.59a21.8,21.8,0,0,0-2.88.65,5.5,5.5,0,0,1-.58.16c-.35.06-.79.17-.92-.24s.33-.54.65-.66c1.77-.7,1.77-.7,1.76-2.6a3.34,3.34,0,0,0-.1-.94,3.23,3.23,0,0,1-.07-.69,3.1,3.1,0,0,0-.61-2c-.21-.35-.14-.64.26-.73S102.93,168.3,102.93,168.9Z" style="fill:#010101"/><path d="M2.18,169.78l.18-1.65a19.09,19.09,0,0,1,1.87-4.27,8.84,8.84,0,0,1,3.64-3.38c2.42-1.16,4.59-2.79,7.15-3.7a47.24,47.24,0,0,1,10.33-2.59c.19,0,.43.07.55-.15.66-1.2,1.88-1.26,3-1.41,2.39-.32,4.8-.29,7.21-.39a1.94,1.94,0,0,1,1,0c-.4.54-.9.4-1.33.45a1.93,1.93,0,0,1-.58,0c2.84.32,5.38,1.62,8.27,2.37a4,4,0,0,0-1.38-1.52c-1-.79-1.05-1.27-.41-2.4-.76.19-1.37.8-2.19.75-.13-.05-.24-.11-.21-.27a19.57,19.57,0,0,1,7.64-2.09c2.9-.34,5.81-.62,8.72-.93.16,0,.25.05.33.17.35.83.63,1.68.91,2.54a8.55,8.55,0,0,0,6.43,6.19,13.31,13.31,0,0,0,7.95-.36,4.43,4.43,0,0,0,2.07-1.54,12,12,0,0,0,2.1-4.17,2.5,2.5,0,0,0,0-1.6,32,32,0,0,0,8.24,0c1.2-.18,2.38-.52,3.58-.68,2.61-.37,5,.49,7.47,1.24a5.46,5.46,0,0,1,2.81,2,36.88,36.88,0,0,1,7,14.41c.31,1.47.29,1.48-1.13,1.95-.14.05-.28.08-.42.12a.64.64,0,0,0-.87-.25c-.28.12-.11.32,0,.49a1.07,1.07,0,0,1-.77.5,84.38,84.38,0,0,1-11.35,3.23c-.57.1-.75.45-.87.92A56.3,56.3,0,0,0,87.29,182c0,1,0,2,0,2.94a.63.63,0,0,1-.21.42c-.39,0-.31-.39-.51-.53l0,0c-.09-.09,0-.39-.31-.18L84,191.17c-.1.29-.28.54.2.75s.13.57,0,.84a11.65,11.65,0,0,0-1,5.31,7.57,7.57,0,0,0,.2.88.33.33,0,0,1-.52.16.41.41,0,0,1-.14-.2,1,1,0,0,0-.35-1,3.38,3.38,0,0,1,0-2,4,4,0,0,0,.17-1.33A13.13,13.13,0,0,0,81,195,47,47,0,0,1,75,196.38a.93.93,0,0,0-.93,1.09c0,.89,0,1.79,0,2.69-.4.83-.8.89-1.43.24a32.54,32.54,0,0,1-.09-4.07c0-.49-.38-.45-.7-.37a37.21,37.21,0,0,1-6,.64c-.64,0-.77.44-.8.92a31.34,31.34,0,0,1-.43,3.37c-.09.74.45.63.86.59a51.34,51.34,0,0,0,5.25-.56,1.67,1.67,0,0,1,.86,0A.72.72,0,0,1,72,202a1.69,1.69,0,0,1-1,.44,46.92,46.92,0,0,1-6.48.63,1.43,1.43,0,0,1-1.14-.35,2,2,0,0,0-1.6-.49,13.38,13.38,0,0,1-5.4-.67,3.07,3.07,0,0,1-1.13-.63c-.15-.35-.24-.68.25-.83a2.05,2.05,0,0,1,.91.27,13.47,13.47,0,0,0,6.17.65c.39,0,.54-.26.6-.62.11-.62.2-1.26.28-1.89.11-.83,0-1-.87-1a18.81,18.81,0,0,1-5.68-.71,8,8,0,0,1-2-.77,5.75,5.75,0,0,1-.38,3.07c-.53.71-.55.7-.92,0a8.15,8.15,0,0,1,.14-1.48,10,10,0,0,0-.49-3.68c-1.67-5-3.32-10-5.41-14.81a7.63,7.63,0,0,0-1.5-2.33A6.62,6.62,0,0,1,45,175a1,1,0,0,0-1.26-.61,29.1,29.1,0,0,1-6.84.57,4.27,4.27,0,0,1-3-1c-.44-.43-1-.26-1.49-.16-3,.55-6.06,1.1-9.1,1.55a28.82,28.82,0,0,1-12.76-.73c-1.77-.54-3.62-.82-5.4-1.37S2.14,171.83,2.18,169.78Z"/><path d="M55.33,200.19l-.18.48c-.4.22-.6-.25-.92-.27a22.78,22.78,0,0,0-1,2.77,6.92,6.92,0,0,0-.3.91c-.09.35-.5.76-.25,1s.77,0,1.16,0a18.85,18.85,0,0,0,5.38-1.27c.2-.09.45-.27.63,0s0,.52-.16.71a4.86,4.86,0,0,1-2,1.18,23.07,23.07,0,0,1-4.64,1c-.65,0-1.19.07-1.49.78-1.31,3.09-2.89,6.07-3.9,9.29-.09.28-.17.55-.27.83a12.71,12.71,0,0,0-.43,7.33q1.32,5.94,2.68,11.87a1.59,1.59,0,0,0,.24.55,1.63,1.63,0,0,0,1.36.44H58a1.11,1.11,0,0,0,1.15-.61,14.93,14.93,0,0,0,2.08-7.45c0-.43,0-.77-.57-.88-.37-.08-.44-.44-.17-.76a3.6,3.6,0,0,1,.65-.58,16.64,16.64,0,0,0,5.39-7c.35-.77.69-1.53,1-2.31a1.35,1.35,0,0,0-.07-1.32,18.25,18.25,0,0,1-1.58-3.38,5.54,5.54,0,0,1-.17-.58c-.08-.35,0-.66.37-.77s.54.14.65.43c.26.65.46,1.31.75,1.95s.42,1.39,1,1.4.61-.87.86-1.37A6.83,6.83,0,0,1,70.1,213c.17-.2.38-.41.67-.27s.25.43.2.69a7.46,7.46,0,0,1-.43,1.23c-.28.58-.46,1.2-.77,1.75s-.14.72.28,1c1.11.75,2.29,1.37,3.34,2.21a14.36,14.36,0,0,1,4.37,5.32c.5-.08.46-.87,1-.7.26.08.24.37.23.61a1.1,1.1,0,0,1-.06.26A12,12,0,0,0,77.77,230a20.77,20.77,0,0,0,.4,4.31c.11.61,0,1.28.5,1.77a23.13,23.13,0,0,0,3.9-.14c1.44,0,2.88-.24,4.33-.31,1,0,1.29-.22,1.4-1.16A109.43,109.43,0,0,1,91,221.83a6.47,6.47,0,0,0,0-3.27,66.47,66.47,0,0,0-4.07-10.25c-.8-1.77-1.83-2.68-3.82-2.71a10.77,10.77,0,0,1-4.18-1.13,3.1,3.1,0,0,1-1.29-1c-.09-.14-.21-.3-.08-.48s.3-.14.47-.11a1.17,1.17,0,0,1,.33.11,18.37,18.37,0,0,0,5.76,1.23c.66.08.59-.21.41-.65-.46-1.13-1.09-2.18-1.47-3.34-.13-.4-.41-.79-.17-1.24a.61.61,0,0,0,.6,0c1.6,4.26,3.94,8.18,5.78,12.33a66.39,66.39,0,0,1,2.38,6.25,9,9,0,0,1,.09,5.21,82.25,82.25,0,0,0-2.58,12.42.74.74,0,0,1-.09.33c-1.09,1.48-.33,3,0,4.44.66,2.72.72,2.69,3.34,1.74.89-.32,1.79-.64,2.72-.89a5.59,5.59,0,0,1,7.24,4.25,14.23,14.23,0,0,1,.39,2.76,3.31,3.31,0,0,1-1.69,3.28,50.77,50.77,0,0,1-6,3.26,4.79,4.79,0,0,1-4,.07c-3.53-1.47-7.06-2.91-10.57-4.42a3.52,3.52,0,0,1-2.23-4.38,27.18,27.18,0,0,0,.53-7.79c0-.42,0-.79-.61-.85-.36-.05-.48-.39-.54-.72a23.62,23.62,0,0,1-.18-9.51,1.72,1.72,0,0,0-.18-1.16,15.93,15.93,0,0,0-7-7.16c-1.54-.89-1.58-.88-2.24.76a21.27,21.27,0,0,1-5.63,8.46.83.83,0,0,0-.28.77,18.46,18.46,0,0,1-2.29,9.5,12.13,12.13,0,0,0-1,7.8,1,1,0,0,1-.29,1.08,76.44,76.44,0,0,1-6.28,5.65,13.32,13.32,0,0,1-6.95,2.47c-1.12.14-2.25.26-3.37.38-.19.08-.45.17-.53,0s.23-.33.41-.44c1.89-.49,3.85-.52,5.75-.94a9.73,9.73,0,0,0,3.73-1.62,53,53,0,0,0,6.26-5.53,1.18,1.18,0,0,0,.34-1.19,6.85,6.85,0,0,1-.21-1.2,17.33,17.33,0,0,1,.4-4.13c.46-1.41.46-1.41-1-1.41-1.9,0-3.81.05-5.71,0-1-.05-1.15.78-1.55,1.37a15.46,15.46,0,0,1-2.58,3.58,2.49,2.49,0,0,1-1.9.79,5.42,5.42,0,0,1,2.17,1.92,1.21,1.21,0,0,1,.27.72c-.05.44-.27.65-.71.39a4.61,4.61,0,0,1-.89-.82A8.51,8.51,0,0,0,39,244.22a12.48,12.48,0,0,0-6.4,2.51A5.5,5.5,0,0,0,30.77,249a5.71,5.71,0,0,0,.85,5.11,2.86,2.86,0,0,0,2.43,1.29c.63,0,1.27,0,1.9,0,.14,0,.26,0,.4-.07a1.84,1.84,0,0,1,.41,0c1.06-.08,2.11-.22,3.17-.36a2,2,0,0,1,1.18.06c.24.2.1.32-.08.44l-5.12.69H33.43c-1.83-.06-2.79-1.19-3.41-2.76a8,8,0,0,1-.54-3.59,4.21,4.21,0,0,1,1.12-2.59,13,13,0,0,1,8.1-4,10.83,10.83,0,0,1,3.89.27,10,10,0,0,0,2.24.18,2.83,2.83,0,0,0,2.2-1.26,27.61,27.61,0,0,0,2.13-3.29.71.71,0,0,0,0-.81,5.28,5.28,0,0,1-.66-1.88c-.88-3.94-1.82-7.86-2.62-11.82a12.05,12.05,0,0,1,.4-6.76c.21-.58.33-1.18.53-1.76.14-.4,0-.54-.41-.44-1,.22-2,.4-3,.58a4.71,4.71,0,0,1-3.36-.55c-2.23-1.31-4.49-2.55-6.62-4a8.49,8.49,0,0,1-1.5-1.31,1.62,1.62,0,0,1-.47-1.44,1.45,1.45,0,0,0-.65-1.5c-1.05-.87-2.19-1.63-3.28-2.45A10.86,10.86,0,0,1,26,203.49a1.62,1.62,0,0,1-.4-1.77,1.4,1.4,0,0,0-.61-1.8,31.89,31.89,0,0,0-5.22-3.3c-.77-.41-1.54-.8-2.35-1.14-.47-.19-.92-.44-.93-1s.41-.87.85-1.12a10.22,10.22,0,0,1,9.69-.39,15.31,15.31,0,0,1,4.62,3.22,38.8,38.8,0,0,0,9.84,7A26.88,26.88,0,0,0,50,205.81c1,.12,1.14.07,1.56-.92a40.76,40.76,0,0,0,1.73-5c.07-.29,0-.66.43-.78.12.66.35.2.56.06A1.26,1.26,0,0,1,55.33,200.19Z" style="fill:#010101"/><path d="M41.9,255l-.37.28.41.05a1.52,1.52,0,0,1-.91.14l.15-.37a2.15,2.15,0,0,1-.66-.41,5.52,5.52,0,0,1-.52-6.25c.15-.2.31-.5.6-.42s.28.43.22.67C40.23,250.91,41.09,252.92,41.9,255Z" style="fill:#040404"/><path d="M86.19,184.69a.4.4,0,0,1,.26-.47,1,1,0,0,1,0,.65Z" style="fill:#aaa"/><path d="M42.74,140.59v.82a8.43,8.43,0,0,1-3.31-6.91c-.17-.58.09-1.2-.15-1.77l-.07,0-.08,0a32.93,32.93,0,0,0-.16,4.33,13.13,13.13,0,0,1-2.59-8,15.5,15.5,0,0,1,2.81-7.89c-1,.1-1.86.2-2.73.26a12.55,12.55,0,0,1-3.62.08c.08-.45.45-.36.74-.39a7,7,0,0,0,1.45-.1c1.34-.24,2.7-.31,4.09-.49a15.28,15.28,0,0,1-3.71-.17c-.3-.09-.66-.17-.71-.55s.3-.46.53-.62l.24-.13a21.51,21.51,0,0,1,2.37-.84c-1.7-.23-2.49-1.3-3.19-2.6a34.55,34.55,0,0,1-3.5-9.63,57.22,57.22,0,0,1-.59-5.71,59.7,59.7,0,0,1-.41-7.2,8.58,8.58,0,0,1,.52-2.81c.65-1.67,1.69-2.65,3.78-1.4A15.71,15.71,0,0,1,42,98.55c.36,1.34.79,2.67,1.11,4a13,13,0,0,0,2.88,6,.89.89,0,0,1,.19.39.32.32,0,0,1-.17.33c-.62,0-.88-.48-1.22-.84a7.24,7.24,0,0,1-.92-1.34.93.93,0,0,1,0-.27,2.49,2.49,0,0,0,.17.76c.15,1.83,1.29,3.18,2.19,4.66a2.07,2.07,0,0,1,.36.69c.06.38,0,.65-.51.46A27.49,27.49,0,0,0,44,110.64c.2.91.39,1.58,1.2,1.88a.7.7,0,0,1,.49,1,7.51,7.51,0,0,1-3.18,3.25,28.29,28.29,0,0,1-6.31,3c.65,0,1.25,0,1.85,0a11,11,0,0,0,1.9-.24,5.91,5.91,0,0,0,3.07-1.7c.35-.37.85-1.17,1.26-.73s-.39.91-.72,1.32a4.59,4.59,0,0,1-2,1.39A3.5,3.5,0,0,0,40,121.07a12.63,12.63,0,0,0-2,12.33c.08.24.17.49.23.75s.14.56.16.69a6.07,6.07,0,0,1,.19-2.47A27.52,27.52,0,0,1,42.46,123a.57.57,0,0,1,.33-.26.25.25,0,0,1,.24.11,2.64,2.64,0,0,1-.24,1.77,44.77,44.77,0,0,0-1.95,8,11,11,0,0,0,1.07,7,16.23,16.23,0,0,1,.37-5.37,2.79,2.79,0,0,1,.48-1.38c.49.09.37.49.42.8,0,1,.06,2,0,3a9,9,0,0,0,2.24,6.5,25.78,25.78,0,0,0,2.66,2.9c-1.32-2.49-.64-4.81,0-7.13.07-.26.16-.64.55-.53s.2.44.18.69a9.89,9.89,0,0,1-.25,1.54c-.46,2,.24,3.7,1.14,5.44.39-.45.31-1.16.92-1.41a.25.25,0,0,1,.29.21c0,.58-.34,1.1-.29,1.72.31-.16.43-.47.66-.68a4.42,4.42,0,0,1,2.59-1.26c2.35-.26,4.68-.06,7-.21a23,23,0,0,1,3.8.24c2.46.35,4.94.55,7.38,1a74,74,0,0,0,7.84,1,8.74,8.74,0,0,0,4.56-.8c.22-.1.5-.34.7-.06s0,.49-.21.69a2.52,2.52,0,0,1-.71.63c-.28.16-.48,0-.67-.18-3.37.64-6.69,0-10-.44a4.78,4.78,0,0,0-1.13-.08.68.68,0,0,1-.44.12c-3.61-.71-7.27-1-10.93-1.35a25.85,25.85,0,0,0-5.2-.21c-2.6-.05-4.25,1.49-5.68,3.54a7.21,7.21,0,0,0-1.09-1.84c.14.75-.15.58-.5.43a8.59,8.59,0,0,1-4.87-4.79c-.25-.62-.51-1.22-.77-1.84a1,1,0,0,1-.24-.83c0-.28-.29-.55-.18-.76-.14.2.14.45.17.72S42.76,140.3,42.74,140.59Z" style="fill:#010101"/><path d="M61.08,145.09c3.36.16,6.69.61,10,1.1a1.49,1.49,0,0,1,1,.3c.4.46.05,1.08.31,1.58l.38.86c.2.29,0,.56-.06.82a4.5,4.5,0,0,1-3.91,3.11c-4.28.48-7.59-1.23-10.35-4.33a.49.49,0,0,1-.17-.47l.71-1.35,0-.07c-.19-1.62-.19-1.62,1.38-1.61A2,2,0,0,1,61.08,145.09Z" style="fill:#989898"/><path d="M58.27,148.06a18.48,18.48,0,0,0,2.92,2.67,10.37,10.37,0,0,0,8.72,1.68A4.11,4.11,0,0,0,72.37,150a9.58,9.58,0,0,0,.39-1.06l1.24.4c.08.23.38.23.46.45.39,2.66-1.95,6.06-4.62,6.69a14,14,0,0,1-7.13-.16c-3-.84-4.42-3.08-5.28-5.85a5.16,5.16,0,0,1-.31-1.7.48.48,0,0,1,.26-.31Z" style="fill:#b2b2b2"/><path d="M94.75,134.67a19.16,19.16,0,0,1-2.37,3.49,1.66,1.66,0,0,0-.32,1.58c.87,3.27.15,4.85-3.1,6.94-.17,0-.23-.05-.26-.19a1.23,1.23,0,0,1,.36-.76,7.92,7.92,0,0,0,1.24-2.26c.1-.26.19-.68.52-.58s.23.53.18.84-.15.43-.18.66a3.43,3.43,0,0,0,.92-3.23c-.27-1.74-.27-1.75-2-1.48-4.36.7-8.7,1.49-13.1,1.91a25.78,25.78,0,0,1-6.51.09,8.2,8.2,0,0,1-6.2-4,36.35,36.35,0,0,1-2.3-4.69,1.49,1.49,0,0,0-1.67-1,7.21,7.21,0,0,0-2.2.47l-1.29.51c-.2.08-.44.17-.58,0s0-.44.14-.61a4.75,4.75,0,0,1,4.31-2,12.5,12.5,0,0,1,3.87,1,3,3,0,0,1,.69.36c.22.17.59.33.47.65s-.5.17-.77.14c-.49-.05-1-.15-1.46-.24-.24-.05-.43-.26-.69-.26a1.66,1.66,0,0,1,.56.25c.93.43,1.7,1.1,2.6,1.59A22,22,0,0,0,73.21,136a46.29,46.29,0,0,0,8.32.53,42.09,42.09,0,0,0,7.25-.7,7.45,7.45,0,0,0,3.15-1.18c.42-.32.75-.24.94.27.36.47.74.43,1.13,0,.15-.16.29-.34.54-.35A.31.31,0,0,1,94.75,134.67Z" style="fill:#010101"/><path d="M57.25,148.65a11.88,11.88,0,0,0,2,5A7.08,7.08,0,0,0,64,156.37a13.79,13.79,0,0,0,5.28,0,6.44,6.44,0,0,0,5.08-6.05l0-.61c.13-.2.24-.14.33,0s.49,0,.73.06a.65.65,0,0,1,.45.87A12,12,0,0,1,73.28,156c-1.12,1.37-2.8,1.67-4.43,2a13.67,13.67,0,0,1-7.65-1,6.53,6.53,0,0,1-2.87-2.33,16.15,16.15,0,0,1-2.47-5.95.71.71,0,0,1,.62-.17C56.74,148.57,57,148.39,57.25,148.65Z" style="fill:#fd700e"/><path d="M94.75,134.67l-.26,0a.72.72,0,0,1,.11-.73,11,11,0,0,0,1.52-5.15,6.06,6.06,0,0,0,.15-.95,29.74,29.74,0,0,0,.48-3.12,1.45,1.45,0,0,0-.22-1.32,3.4,3.4,0,0,0-2.46-.85,7.6,7.6,0,0,1-2.47-.18.79.79,0,0,1-.22-.18.72.72,0,0,1,0-.54c.27-.7.92-1.19,1.11-2.06a11.75,11.75,0,0,1-4,.51c-.36,0-1,.11-1-.28s.6-.43,1-.49c.89-.12,1.79-.18,2.68-.3a3.4,3.4,0,0,0,1.4-.62,5.71,5.71,0,0,0-1.65-.23,2.91,2.91,0,0,1-.78,0,6.49,6.49,0,0,0-4.47.16c-.19.09-.58.18-.67-.16s.27-.47.53-.58a16.72,16.72,0,0,0,3.6-1.71,10.34,10.34,0,0,0,1.06-.85,6.51,6.51,0,0,1-3,.35,2.2,2.2,0,0,0-2.31,1.33,4.14,4.14,0,0,1-.62.94,2.83,2.83,0,0,1-1.88.83,1.26,1.26,0,0,1-.62-.15.89.89,0,0,0,.52.16c1.86.61,3.65,1.39,5.5,2a1,1,0,0,1,.61.45c0,.23-.2.29-.38.33a21.16,21.16,0,0,1-4.8-1.47c-1.23-.45-2.37-1.1-3.57-1.6a1.39,1.39,0,0,1-.92-1.35,12.9,12.9,0,0,1,2.1-7.58,1.78,1.78,0,0,1,.21-.27c1.65-1.87,2.9-2.07,4.82-1,0-.57,0-1.1,0-1.64a5.3,5.3,0,0,1,0-.69c.08-.35.26-.33.45-.07a24.49,24.49,0,0,1-.61,9.06,1.18,1.18,0,0,1,0,.19c2.14-.09,4.33.15,6.31-1a5.06,5.06,0,0,1-1.56,1.91c-.63.5-1.31.94-2.08,1.48,2,.65,3.94.34,5.86.66a15.68,15.68,0,0,1-2.36,4.12c.87,0,1.49,0,2.11,0a6,6,0,0,1,2.22.36,1.83,1.83,0,0,1,1.38,2.07c-.5,2.81-.58,5.71-1.64,8.41A6.53,6.53,0,0,1,94.75,134.67Z" style="fill:#020202"/><path d="M67.36,88.86l-.82,1.07a1.63,1.63,0,0,0,.87.08,22.39,22.39,0,0,1,8,1.13.68.68,0,0,0,.62,0c3.78-1.62,7.57-3.24,11.38-4.79,1.7-.69,2-.41,1.93,1.44a17.7,17.7,0,0,1-.23,2.42c-.35,1.73.21,3.4.22,5.1,0,.49.42.31.66.31a47.09,47.09,0,0,0,5.81-.48.29.29,0,0,1,0,.4,5.38,5.38,0,0,1-2.2.45,21.11,21.11,0,0,1-9.69-.87c-2.67-.92-5.27-2-7.86-3.08a22.12,22.12,0,0,0-7.12-1.43c-2.41-.18-4.45.82-6.62,1.5a14.7,14.7,0,0,0-5.65,3.32,2.3,2.3,0,0,1-1,.65.33.33,0,0,1-.33-.19.53.53,0,0,1,.26-.51c2-1.72,3.87-3.51,6.6-4.11a10.09,10.09,0,0,0,5.07-2.65C67.33,88.62,67.44,88.68,67.36,88.86Z" style="fill:#010101"/><path d="M86.18,105.55c-.13,0-.37-.18-.27.16a1,1,0,0,1,.06.58c-1.18-.94-2.45-.51-3.72-.28s-2.2.54-3.32.73a1.79,1.79,0,0,1-2.11-1.91.48.48,0,0,1,.48-.51c1.52-.08,2.94-.68,4.46-.76,2-.62,3.79,0,5.57.85.16.25.29.53.43.8s.63.27.44.6-.51,0-.77-.06A3.1,3.1,0,0,0,86.18,105.55Z" style="fill:#1a1a1a"/><path d="M87.76,105.21c-.12-.18-.76-.06-.33-.57.43-.29.84,0,1.24.09a33.88,33.88,0,0,1,5.11,2.19,1.61,1.61,0,0,0,.84.32,9.23,9.23,0,0,0-5.45-5.64,14.35,14.35,0,0,0-4.41-.88,7.81,7.81,0,0,1-2.39-.43c-.3-.12-.78-.23-.67-.64s.55-.26.86-.21l2.84.4a9.28,9.28,0,0,0,7.3-1.78c.84-.67,1.68-1.33,2.46-2.07a2.12,2.12,0,0,1,.39-.34c0-.11.38,0,.21-.25v-.29A1.58,1.58,0,0,1,97,95.05c-2.52,2.38-4.85,4.82-8.45,5.58,3.94,1.27,6,4.16,7.23,7.93a1.89,1.89,0,0,1-1-.42,30.16,30.16,0,0,0-6.15-2.79A1.52,1.52,0,0,0,87.76,105.21Z" style="fill:#040404"/><path d="M67.36,88.86l-.16-.21c.07-1,1-1.44,1.31-2.26a50.37,50.37,0,0,1-6.37,1.77,10.89,10.89,0,0,0-5.17,3A8.2,8.2,0,0,0,55.28,94c-.14.38-.3,1-.78.85s-.28-.84,0-1.24c1.07-2,1.85-4.07,3.44-5.71.2-.2.34-.48.66-.54a.31.31,0,0,1,.28.24,26.78,26.78,0,0,0-1.93,2.53c.09,0,.17.08.19.07,2.07-1.87,4.63-2.62,7.29-3.18a15.53,15.53,0,0,0,5.42-2c.08-.06.22,0,.33,0A25.64,25.64,0,0,1,67.36,88.86Z" style="fill:#050505"/><path d="M87.91,147.72c-.77.4-1.48,1.05-2.44.5-.17-.07-.28-.19-.19-.39a10,10,0,0,0,2.84-3.31c.17-.24.29-.73.64-.57s.14.62.06,1a5.54,5.54,0,0,1-1.17,2.19c-.16.19-.25.33.1.36C87.87,147.5,88,147.57,87.91,147.72Z" style="fill:#060606"/><path d="M85.3,147.93l.17.29a14.45,14.45,0,0,1-4.33.58A20.4,20.4,0,0,0,83.55,147c.25-.22.2.2.36.17,0,.63-.63.68-.93,1-.13,0,.06.14,0,.06s0-.05.06-.06A5.87,5.87,0,0,1,85.3,147.93Z" style="fill:#101010"/><path d="M87.91,147.72l-.2-.18a1.18,1.18,0,0,1,1.06-1l.19.19A2.35,2.35,0,0,1,87.91,147.72Z" style="fill:#1e1e1e"/><path d="M72.38,148.07c-.5-.45,0-1.09-.31-1.58l.34,0A8,8,0,0,0,72.38,148.07Z" style="fill:#747474"/><path d="M74.68,149.74l-.33,0c-.21,0-.41-.08-.35-.37C74.19,149.53,74.63,149.31,74.68,149.74Z" style="fill:#524f4a"/><path d="M58.83,87.61l-.2-.18c-.29,0,.37-.56-.2-.38-2.52.81-4.71,2.07-5.86,4.63a5.73,5.73,0,0,0-.38,3.72,8.52,8.52,0,0,1,.19,1.33c0,.27.06.67-.45.59a16,16,0,0,0-7.48-4.2c-3.66-1.08-6.69-3.29-9.65-5.59a16.36,16.36,0,0,0-2.27-1.61c-1.25-.67-2.07-.3-2.37,1.08a49.53,49.53,0,0,0-.71,6c-.32,3.4-.45,6.81-.58,10.23a15.33,15.33,0,0,0,1.67,7.2c.15.32.31.62.47.93A44.15,44.15,0,0,0,35,116.68c.21.26.53.49.36.91a.5.5,0,0,1-.24.09c-.79-.33-1.18-1.09-1.72-1.67a31.54,31.54,0,0,1-4.62-7,19.3,19.3,0,0,1,.24,2.19,10.17,10.17,0,0,0,5.7,7.42c.31.15.76.18.77.68h0a1.11,1.11,0,0,1-.92.11,13.74,13.74,0,0,1-5.28-3.58,1,1,0,0,1-.34-.69c0-.14.09-.25.27-.19.42.28.63.81,1.18,1.05a1.51,1.51,0,0,0-.47-.94c-1.61-2.16-1.66-4.7-1.77-7.22,0-.14,0-.38.15-.36,1,.2.37-.54.33-.72a11.31,11.31,0,0,1-.34-3c.21-5.51.5-11,1.25-16.48a5.18,5.18,0,0,1,.31-1.17,1.59,1.59,0,0,1,2-1,6.72,6.72,0,0,1,2.62,1.5,50,50,0,0,0,4.43,3.22A24.07,24.07,0,0,0,45.72,93a15,15,0,0,1,6,3.35c-.54-2.75-.11-5.07,1.74-7A12.57,12.57,0,0,1,60.07,86,5.9,5.9,0,0,1,58.83,87.61Z" style="fill:#030303"/><path d="M29.19,115l-.2.2a.41.41,0,0,1-.44-.18,9.69,9.69,0,0,0,.67,2.59c1.1,2,2.53,3.46,5,3.45.31,0,.66-.06.88.25-.71.39-1.55-.11-2.26.3A7.39,7.39,0,0,1,28,114.36c0-.16-.08-.37.12-.46s.37.09.5.24S29,114.68,29.19,115Z" style="fill:#0a0a0a"/><path d="M39.29,151.59l.18.15c-.32.42-.32.42-.95.57a21.1,21.1,0,0,1,3,1.05c.24.11.48.23.55.52a.34.34,0,0,1-.29.25,2.08,2.08,0,0,1-.92-.22,16.26,16.26,0,0,0-4.56-1.1c-.25,0-.53,0-.73-.21.36-.35.85,0,1.31-.29l-.83-.07Z" style="fill:#050505"/><path d="M61.08,145.09l-.52,0c-1.57,0-1.57,0-1.58,1.59-.23-.07-.17-.26-.18-.42-.07-1.22-.07-1.21-1.25-1.2-.57,0-1.14,0-1.71,0A17.7,17.7,0,0,1,61.08,145.09Z" style="fill:#2a2a2a"/><path d="M39.13,132.76a.53.53,0,0,1,.3-.63v2.37C39.08,134,39.47,133.3,39.13,132.76Z" style="fill:#929292"/><path d="M42.74,140.59a1.28,1.28,0,0,1-.14-.88c0-.08.1-.08.14,0l.19.86Z" style="fill:#e6e6e6"/><path d="M57.25,148.65l-.87-.06c-.07,0-.09-.06-.07-.09s0,0,.07,0h1Z" style="fill:#301c0e"/><path d="M56.38,148.46v.13l-.52.1-.21-.12A1,1,0,0,1,56.38,148.46Z" style="fill:#55575d"/><path d="M120.67,175.08a4.31,4.31,0,0,1,.74-1.26c.11-.18.35-.38,0-.58s-.42.06-.55.24a8.79,8.79,0,0,0-1.6,4.42,8.32,8.32,0,0,0,.27,3.43c.22.6.85,1,1,1.48s-.65.86-.71,1.45c0,.32,0,.64,0,1a.45.45,0,0,1-.48-.3c-.5-.95-1.26-.77-2-.5l-5.07,1.7a79.32,79.32,0,0,1-12,2.36,16.82,16.82,0,0,1-7.49-.53,5.4,5.4,0,0,1-3.79-5.19,10.44,10.44,0,0,1,1.28-5.87,7.74,7.74,0,0,1,4.38-3.63c2.4-.79,4.84-1.45,7.25-2.17.3-.09.62-.22.92,0l0,.67a19.67,19.67,0,0,1,.06,2.43c0,.56-.42.63-.79.76a8.11,8.11,0,0,0-3.47,2.24,9.72,9.72,0,0,0,5.18-1.45c.29-.2.64-.27.91-.48a45.55,45.55,0,0,1,5.56-.86,53,53,0,0,1,8.07-.25,1.18,1.18,0,0,0,1-.59,15.29,15.29,0,0,1,2.08-2.1,3.51,3.51,0,0,1,6.07,2.59,10.73,10.73,0,0,1-1.46,6.3,3.31,3.31,0,0,1-1.36,1c-2.08.68-3.27,0-3.65-2.1A10.63,10.63,0,0,1,120.67,175.08Z" style="fill:#b2b2b2"/><path d="M102.71,171.09l-8,2.35c-3.61,1.07-5.49,4.77-5.57,7.66a11,11,0,0,0,.07,2.43c.52,2.75,2.24,4.21,5.23,4.64a27.63,27.63,0,0,0,9.07-.42c2.69-.51,5.37-1.09,8.06-1.64a4.14,4.14,0,0,1,.61,0,62.75,62.75,0,0,1-12,4c-1.52.3-3,.5-4.59.66a3.33,3.33,0,0,0-1.37,0H92.26a1.24,1.24,0,0,0-.85,0c-2.46-.33-3.52-1.27-4.2-4.82,0-.19,0-.41-.16-.55l0-.36a16.26,16.26,0,0,0,0-3.12A55.53,55.53,0,0,1,89,173.18c.07-.27.15-.48.47-.52a58.61,58.61,0,0,0,9.83-2.61c.93-.29,1.85-.61,2.78-.91C102.87,169.57,102.54,170.42,102.71,171.09Z" style="fill:gray"/><path d="M128,174.91a5,5,0,0,0-2.29-4.69c.69-.07,1.16-.14,1.63-.15a70.71,70.71,0,0,0,13-1.49,4.93,4.93,0,0,1,3.63.23,3.28,3.28,0,0,1,.58,2.23,2.28,2.28,0,0,1-1.25,2,5.52,5.52,0,0,1-1.73.58,31.51,31.51,0,0,1-4.24.38,33.45,33.45,0,0,0-8.28.94A1.3,1.3,0,0,1,128,174.91Z" style="fill:#b2b2b2"/><path d="M126.4,180.84a11.7,11.7,0,0,0,1.44-4.45c0-.42.25-.47.58-.35a9.34,9.34,0,0,1,1.37.5c.52.27.74.11.84-.4a1.28,1.28,0,0,1,1.4-.72c1.7.44,2.38,1.86,1.84,3.84a4.93,4.93,0,0,1-.31.71,8.43,8.43,0,0,1-4.39,1.46,5.79,5.79,0,0,1-2-.11C126.87,181.24,126.54,181.18,126.4,180.84Z" style="fill:#b2b2b2"/><path d="M121.05,183.68c.72-.32,1.59-.07,2.26-.42a4.92,4.92,0,0,1,3.4-.13,10.92,10.92,0,0,0,2.68,0c1-.06,1.38.25,1.4,1.3,0,.2,0,.4,0,.6a4.58,4.58,0,0,1-3.08,1.18c-1.68.18-3.38.45-5-.23a2.61,2.61,0,0,1-1.6-1.48C120.92,184.21,120.8,183.94,121.05,183.68Z" style="fill:#b2b2b2"/><path d="M128,174.91a34.84,34.84,0,0,1,9.58-1.22,20,20,0,0,0,4.38-.45c2.17-.5,2.75-1.49,2.23-3.67l-.18-.76c1.34,1.06,1.57,4.36-.72,5.19a11.5,11.5,0,0,1-2.78.54c-2.14-.1-4.29-.1-6.43,0a27.41,27.41,0,0,0-3.72.58c-.2.07-.67,0-.46.49a.28.28,0,0,1-.38,0C129,175.4,128.37,175.49,128,174.91Z" style="fill:gray"/><path d="M120.67,175.08c.18,1.33.21,2.68.49,4,.51,2.39,2.3,3.06,4.3,1.59.16-.12.33-.22.5-.33a3.62,3.62,0,0,1-3.61,2.41c-1.44-.07-2-.67-2.5-2.45a12.45,12.45,0,0,0,0-2.59A6.19,6.19,0,0,1,120.67,175.08Z" style="fill:gray"/><path d="M121.05,183.68c.25,1.44,1.13,2.24,2.87,2.38a12.25,12.25,0,0,0,6.82-1.05,2.69,2.69,0,0,1-1.74,1.4,12.77,12.77,0,0,1-3.11.84,8.87,8.87,0,0,0-2.06,0,5.94,5.94,0,0,1-2.75-1.08A1.47,1.47,0,0,1,121.05,183.68Z" style="fill:gray"/><path d="M126.4,180.84a8.29,8.29,0,0,0,6-.47l1.13-.4c-.43,1.43-1.7,1.82-2.89,2.18a8.9,8.9,0,0,1-4.64.14c-.52-.12-.59-.25-.28-.65S126.18,181.11,126.4,180.84Z" style="fill:#7f7f7f"/><path d="M104.64,175.26c-1.4,1.48-3.25,1.85-5.15,2.1-.2,0-.41,0-.61,0s-.61.31-.74-.05.28-.46.5-.64a9.24,9.24,0,0,1,3.65-2.08.52.52,0,0,0,.44-.62c0-.75,0-1.5,0-2.25a8.63,8.63,0,0,1,.12,2.91c0,.43-.38.48-.66.57a5.23,5.23,0,0,0-1.88.77C101.82,176.08,103.16,175.24,104.64,175.26Z" style="fill:gray"/><path d="M134.11,174.54c.33-.27.73-.13,1.09-.14,1.5,0,3,0,4.51,0,.28,0,.58-.09.83.14Z" style="fill:#8e8e8e"/><path d="M129.55,175.62h.38c.7-.07,1.35-.65,2.1-.19-.56.06-.91.53-1.4.72Z" style="fill:#7a7a7a"/><path d="M119.84,177.72a5,5,0,0,1,0,2.59Z" style="fill:#8b8b8b"/><path d="M123.83,187.26a3.37,3.37,0,0,1,2.06,0Z" style="fill:#8e8e8e"/><path d="M94.2,190.75a1.45,1.45,0,0,1,1.37,0Z" style="fill:#8b8b8b"/><path d="M91.41,190.75a.63.63,0,0,1,.85,0Z" style="fill:#8b8b8b"/><path d="M78.85,224.94l0-.17c.1-.17.14-.4,0-.49-.66-.47-.82-1.24-1.19-1.88a5.89,5.89,0,0,0-1.58-1.82,37.45,37.45,0,0,1-4.57-4.14,5.18,5.18,0,0,1-1.2-1.79c.13-.4.28-.81.41-1.22.06-.2.25-.47-.08-.59s-.42.14-.52.36c-.36.82-.69,1.66-1.07,2.47-.48,1-.59,1-1.22.08a15.47,15.47,0,0,1-1.21-2.69c-.11-.29,0-.94-.59-.73s-.08.66,0,1A15.34,15.34,0,0,0,67.79,217c.15.24.33.45.17.79a33.24,33.24,0,0,1-3.54,6.76A16.69,16.69,0,0,1,61,228c-.2.14-.64.24-.45.62s.55.06.9,0a13.22,13.22,0,0,1-1,6.35c-1.3,3.13-1.3,3.13-4.66,3.1-1.59,0-3.19,0-4.79,0-.45,0-1,.14-1.27-.47-.19-1.54-.47-3.08-.65-4.63-.32-2.76-.75-5.51-.93-8.28a24.64,24.64,0,0,1,1.33-8.8c.86-2.9,2-5.68,3.1-8.49a1.83,1.83,0,0,1,.51-.8,24.62,24.62,0,0,0,4.71-1.11A3.69,3.69,0,0,0,60,203.74a16.11,16.11,0,0,1-6.19,1.53c-.44.15-.56-.17-.48-.45a38.47,38.47,0,0,0,.81-4.76s.1,0,.16,0a2.71,2.71,0,0,0,.9.63,9,9,0,0,0,4.46,1.25c.78.05,1.57,0,2.35,0,.55,0,1.15-.2,1.45.56.1.25.51.27.8.26a35.36,35.36,0,0,0,7.67-.86,13.3,13.3,0,0,1,6.24-2.22c1.28-.21,2.55-.53,3.82-.78.31-.06.63-.2.9.08h0a34.27,34.27,0,0,0,2,4.73c.1.23.38.48.22.7s-.54.1-.81.07a18,18,0,0,1-6.81-1.65,3.07,3.07,0,0,0,1.74,1.49,16.53,16.53,0,0,0,5.4,1.24,1.93,1.93,0,0,1,1.83,1.25A84.58,84.58,0,0,1,90.79,217a9.68,9.68,0,0,1,.21,5.88A80.12,80.12,0,0,0,88.48,235c-.08.58-.32.81-.86.85-1.82.13-3.64.32-5.47.39a27.65,27.65,0,0,1-3.64.18,2,2,0,0,1-.2-1.35c.17-2.39.25-4.79.57-7.17A12.66,12.66,0,0,0,78.85,224.94Z" style="fill:#336799"/><path d="M45.38,172.48c-.54-.57-1.28-.43-1.94-.48a46.7,46.7,0,0,0-7.09.33,3.34,3.34,0,0,1-1.63-.11,23.48,23.48,0,0,0-7.62-.1,81.33,81.33,0,0,1-12.09.13,36.59,36.59,0,0,1-7.14-1,10.38,10.38,0,0,1-3.15-1.45A2.41,2.41,0,0,1,3.64,167a13.77,13.77,0,0,1,1-2.5c1.6-2.9,4.29-4.09,7.34-4.72a48.12,48.12,0,0,1,19.53.07,83.59,83.59,0,0,0,8.9,1.54,1,1,0,0,0,.82-.15c3.47-2.72,7.35-2.88,11.47-1.93,3.89.89,7.75,2,11.72,2.47a32,32,0,0,0,3.39.27,1.73,1.73,0,0,1,1.5.49A2.8,2.8,0,0,1,67,166.3a4.83,4.83,0,0,1-.76.13c-.86,0-1.71,0-2.56,0-.35,0-.67-.13-1-.16s-.67,0-1,0a3.05,3.05,0,0,1-1.08-.39,9.76,9.76,0,0,0-5.81-1.41,6.42,6.42,0,0,0,2.23.7c2.06.46,3.63,1.47,4.17,3.66a11.1,11.1,0,0,0,0,1.63,1.24,1.24,0,0,1-.45,1c-.27.25-.63.34-.8,0-.87-1.94-2.58-2-4.33-2-.28.07-.71-.24-.82.18s.39.48.67.61a12.62,12.62,0,0,1,2.15,1.06,3,3,0,0,1,1.33,2.29,1.9,1.9,0,0,1-.25,1.42c-.27.6-.87.7-1.1.12-.58-1.45-1.84-1.92-3.1-2.42a1.3,1.3,0,0,0-.73,0c-1.93.44-3.84,1.12-5.86.9A3.2,3.2,0,0,1,45.38,172.48Z" style="fill:#b2b2b2"/><path d="M4.61,164.48c-.15.91-.65,1.71-.77,2.65a2.26,2.26,0,0,0,1,2.45,14.43,14.43,0,0,0,6.21,2,72.28,72.28,0,0,0,12.82.5c2.56-.07,5.11-.48,7.69-.51a24,24,0,0,1,4.77.73c-2.15.39-4.3.79-6.46,1.15-2.59.44-5.18.9-7.79,1.23a26.71,26.71,0,0,1-11.17-.8c-1.85-.56-3.77-.89-5.62-1.44-2.19-.65-2.83-1.88-2.32-4.11A10.89,10.89,0,0,1,4.61,164.48Z" style="fill:gray"/><path d="M53.23,176.81c.14-.33,0-.72.18-1a.62.62,0,0,1,.5,0,4.33,4.33,0,0,0,4.38-.32.49.49,0,0,1,.33-.07c.2.24.36,0,.54,0,1.18,0,1.32.14,1.54,1.39,0,.23.07.54.38.63a.59.59,0,0,1-.16.65c-.17.08-.2.24-.22.41-.47-.34-.16-.9-.37-1.31-.39-.82-1.08-.66-1.75-.54l-.13,0c.08.08-.05,0,.06,0a1.91,1.91,0,0,1,.33-.06c.65-.13,1.21-.07,1.5.63.18.87.16,1.76.28,2.64,0,.46.12.9.1,1.36s.11.84-.18,1.21h0c-.4.56-1,.48-1.61.53-1,.07-2,.14-2.95.24-.68.07-1.37.09-2.05.16a4.42,4.42,0,0,1-1.15,0c-.26-.11-.57-.16-.61-.53v-.05a8.91,8.91,0,0,1-.35-2.35,2.76,2.76,0,0,0-.08-.86,7.56,7.56,0,0,0-.1-1.26,3,3,0,0,1,0-.42.93.93,0,0,1,.7-.78A2.39,2.39,0,0,1,53,177c.25,0,.5.08.75.05s0,0,.08,0a.44.44,0,0,1,.16,0c0-.08-.09,0-.12,0C53.64,177.05,53.38,177.09,53.23,176.81Z" style="fill:#020101"/><path d="M55.33,200.19l-1-1a9.6,9.6,0,0,0,.36-3.41,21.67,21.67,0,0,0,2.74.94,18.15,18.15,0,0,0,5.49.54c.66,0,.91.19.82.84q-.19,1.41-.36,2.82a.36.36,0,0,1-.41.35c-2.41.08-4.84.29-7.11-.87A2.74,2.74,0,0,0,55.33,200.19Z" style="fill:#1a1a1a"/><path d="M73.8,200.18c0-1.07,0-2.14,0-3.21a.65.65,0,0,1,.62-.77,44.23,44.23,0,0,0,7.87-1.89,5.37,5.37,0,0,1,.75-.12c-.18.88-.39,1.68-.49,2.49a1.49,1.49,0,0,0,.14,1.25c.14.75-.51.73-.91.84-1.25.35-2.54.54-3.81.82-1,.22-2.09.44-3.14.6A1.55,1.55,0,0,1,73.8,200.18Z" style="fill:#1a1a1a"/><path d="M58.62,175.42a4.22,4.22,0,0,1-5.21.35,2.84,2.84,0,0,1-.7-1.33c.54,0,.88.39,1.31.55.19.08.4.19.55,0s0-.44-.16-.6a2.41,2.41,0,0,0-2.65-.44,8.71,8.71,0,0,1-2.95.9,3,3,0,0,1-3.43-2.36,7.31,7.31,0,0,0,5.81.42,17.85,17.85,0,0,0,2.4-.58,1,1,0,0,0,.84,0c.46.6,1.25.45,1.84.87a2.78,2.78,0,0,1,1.16,1.4c.1.28.2.68.61.64s.39-.4.49-.66a9.52,9.52,0,0,0,.29-1.08C59.24,174.19,58.77,174.79,58.62,175.42Z" style="fill:#989898"/><path d="M72.75,196.18l0,4.37c-.18.74-.79.43-1.24.51-1.9.34-3.82.5-5.74.66-.29,0-.58,0-.87,0-.79.06-.83-.3-.52-.89A26.7,26.7,0,0,1,68,199a.89.89,0,0,0,.75-1,.76.76,0,0,1,.32-.77A7.49,7.49,0,0,1,72.75,196.18Z" style="fill:#333"/><path d="M72.75,196.18c-1.07.36-2.19.52-3.23,1-.53.23-.74.52-.53,1.06a.44.44,0,0,1-.26.64c-1.44.46-2.61,1.44-4,2a1,1,0,0,1-.34,0c.15-1.31.33-2.63.45-4,.05-.44.22-.6.65-.6a30.75,30.75,0,0,0,6.62-.69C72.63,195.52,72.84,195.65,72.75,196.18Z" style="fill:#7f7f7f"/><path d="M16.82,156.82a41.15,41.15,0,0,1,8-1.92c1.09-.15,1.09-.13,1.07.94,0,.78,0,1.56,0,2.34a17.76,17.76,0,0,1-3.49-.3c-1.46-.14-2.91-.37-4.37-.53C17.56,157.3,17,157.38,16.82,156.82Z" style="fill:#b2b2b2"/><path d="M42.07,153.84a32.85,32.85,0,0,0-3.89-1.47c.37-.4.94-.29,1.29-.63.94-.16,1.69-.84,2.73-1-.17.23-.3.38-.4.54-.54.85-.49,1.32.29,1.94a13.47,13.47,0,0,1,1.49,1.33c.13.14.3.31.17.53s-.36.17-.54.12c-.56-.15-1.11-.33-1.65-.52a49.64,49.64,0,0,0-6.47-1.93c.15-.22.37-.09.53-.15,2.23-.13,4.24.68,6.27,1.41.1.07.25.11.31.05S42.09,153.93,42.07,153.84Z" style="fill:#323232"/><path d="M16.82,156.82a20.38,20.38,0,0,0,3.81.57c1.73.29,3.47.53,5.21.79-.11.35-.39.18-.58.16a45.47,45.47,0,0,0-12.86.7,1.12,1.12,0,0,1-.54,0A19.45,19.45,0,0,1,16.82,156.82Z" style="fill:#7f7f7f"/><path d="M60.92,178.05c.07-.21-.05-.48.16-.65.67,0,1.33-.08,2-.08,1.08,0,1.56.71,1,1.62-.19.33,0,.36.13.49a1,1,0,0,1,.42,1.21,1.2,1.2,0,0,1-1,.9c-2.33.41-2.35.39-2.52-1.95A5,5,0,0,0,60.92,178.05Z" style="fill:#fbfbfb"/><path d="M72.89,180.82l-.49.05c-.64-.13-.09-.67-.32-.94-.06-.89-.14-1.78-.18-2.68,0-.24-.22-.6.22-.72a.7.7,0,0,1,.85.38c.47.71,1,1.39,1.63,2.27,0-.87-.11-1.51-.13-2.15,0-.26-.25-.65.31-.72s.41.34.44.62c.07.54.12,1.09.18,1.64.37.39-.12.86.11,1.27-.1.25.24.63-.24.78s-.74-.13-1-.46a3.35,3.35,0,0,1-.83-.85c-.17-.23-.34-.46-.51-.72a7,7,0,0,1,.2,1.35A1.52,1.52,0,0,1,72.89,180.82Z" style="fill:#fbfbfb"/><path d="M81.66,179.11c0,.25.06.45.07.66s-.22.33-.46.36-.36-.06-.38-.32l-.3-3.63c0-.33.17-.36.43-.38s.44.07.43.37c0,.09,0,.18,0,.26.07,1,.53,1.26,1.5.93.23-.08.23-.21.22-.39s-.06-.57-.1-.86,0-.5.37-.51.47,0,.49.4c.07,1.12.18,2.25.3,3.37,0,.36-.06.52-.44.56s-.42-.18-.43-.46c0-.12,0-.23,0-.35-.08-1.08-.44-1.31-1.47-.93C81.32,178.4,81.81,178.85,81.66,179.11Z" style="fill:#fbfbfb"/><path d="M77.58,168.11c-.31.59-.9.92-1.31,1.42a2.43,2.43,0,0,1-.92.43c-.3.09-.62,0-.94.15-.09,0,.07.19,0,.08s0-.05,0-.05c.5,0,1-.4,1.45.18a.79.79,0,0,1-.76.31c-1,0-2,.05-3,.09a.39.39,0,0,1-.32-.31,5.07,5.07,0,0,1,1.06-2.14.58.58,0,0,1,.54-.23C74.81,168.08,76.2,168,77.58,168.11Z" style="fill:#ea8423"/><path d="M71.53,201.06c.35-.31.94-.07,1.24-.51.44.16.89.33,1-.37L79.72,199c.76-.16,1.52-.32,2.27-.5.31-.07.65-.13.69-.54.65.26.31.67.16,1.06l-8.58,1.72c-.16,0-.37,0-.44.19-.33,1-1.2.85-1.94,1C71.88,201.58,71.93,201.23,71.53,201.06Z" style="fill:#010101"/><path d="M70.48,180.84c-.18-.31-.12-.89-.73-.75s-1.37-.28-1.47.73c0,.49-.43.44-.71.39-.49-.09-.12-.41-.07-.6.28-1.08.6-2.16.9-3.24.09-.33.19-.55.61-.58s.56.16.71.47c.54,1.08,1.08,2.16,1.63,3.24.16.22.17.45-.08.59A.53.53,0,0,1,70.48,180.84Z" style="fill:#fbfbfb"/><path d="M76.21,177.53c.46-1.26,1-1.59,2.42-1.54.39.11.84.13.93.66.25.86-.31.62-.74.55a1.17,1.17,0,0,0-.95-.23.77.77,0,0,0-.47.41c-.11.28-.05.62-.28.85a1.34,1.34,0,0,0,.3,1.13.89.89,0,0,0,1.53-.28c.21-.48.47-.33.74-.23.42.17.1.45,0,.64a1.57,1.57,0,0,1-1.43.95,1.77,1.77,0,0,1-1.7-.82,7.49,7.49,0,0,1-.36-.69C75.87,178.47,76.22,178,76.21,177.53Z" style="fill:#fafafa"/><path d="M65.47,172.32l-.07-.18a1.21,1.21,0,0,1-.34-1.1,11.82,11.82,0,0,1,2.66-1.21,7.53,7.53,0,0,1,1,0,2.44,2.44,0,0,1,.39.06,4.4,4.4,0,0,0,1,.14l.25,0a3.34,3.34,0,0,0,.89.11.77.77,0,0,1,.5.18c0,.16,0,.26-.16.34-1.93.64-3.88,1.19-5.84,1.72A.46.46,0,0,1,65.47,172.32Z" style="fill:#d0156e"/><path d="M60.53,165.86a2.49,2.49,0,0,1,1.08.18,1.43,1.43,0,0,0,1,0l.9.18a9.82,9.82,0,0,0,2.76,0h.09c2.36-.41,2.74-1.16,2.9-3.68a2.76,2.76,0,0,1-1.12,3.82,5,5,0,0,1-2,.55,31.72,31.72,0,0,1-3.9,0A1.81,1.81,0,0,1,60.53,165.86Z" style="fill:#979797"/><path d="M55.49,169.35c1.37-.49,3.55,0,4.17,1.33.14.28.18.81.55.77s.6-.49.69-.9,0-.79.09-1.19c0-.15-.05-.37.23-.35a5,5,0,0,1,0,1.72,1.74,1.74,0,0,1-1.35,1.52c-.19.05-.45.16-.55-.06C58.57,170.55,57,170.05,55.49,169.35Z" style="fill:#979797"/><path d="M70.48,180.84c.38.11.84.43.87-.34a.7.7,0,0,0,.73-.57c.23.27-.1.73.32.94a18.86,18.86,0,0,0-3.7,2c-.14.11-.28.2-.3.39s-.34.38-.36.65-.13.3-.33.28c-.69.14-.56.78-.74,1.23-.51-.18-.24-.62-.32-.88-.16.47.26,1,0,1.52-.1.15-.28.46-.32,0-.07-.8,0-1.61,0-2.42,0-.24.18-.29.36-.4,1.26-.73,2.5-1.5,3.74-2.26C70.44,181,70.45,180.89,70.48,180.84Z" style="fill:#333"/><path d="M68.91,174A22.51,22.51,0,0,0,67,176.13c-.13-.85.63-1.44.18-2.14.61-.88,1.61-1.31,2.36-2,.36-.36.84-.59,1.17-1a1.23,1.23,0,0,1,.8-.29.36.36,0,0,1,.11.22A11,11,0,0,1,68.91,174Z" style="fill:#2d9587"/><path d="M72.06,170.57a11.42,11.42,0,0,1,2.92-.18c.31,0,.64.08.92-.15,0-.06.09-.08.14,0l.76.61a40,40,0,0,1-4.12,1A.9.9,0,0,1,72.06,170.57Z" style="fill:#f3a82c"/><path d="M66.27,179.3l.15,1.47c0,.28.13.58-.35.61s-.48-.11-.51-.47c-.07-1.1-.18-2.2-.29-3.29,0-.33,0-.54.42-.58s.43.24.45.53c0,.58.11,1.15.16,1.73Z" style="fill:#f7f7f7"/><path d="M77.58,168.11c-1.22,0-2.44,0-3.66,0a.93.93,0,0,0-1,.58c-.27.59-.64,1.15-1,1.72l-.12,0c-.5-.46-1.07-.89-.8-1.71a2.65,2.65,0,0,1,.21-.26c.14-.16.26-.36.49-.42h5.85C77.64,168,77.64,168,77.58,168.11Z" style="fill:#ee6030"/><path d="M66.3,168.66a9.38,9.38,0,0,1,2.1-.33.57.57,0,0,1,.15.23,2.22,2.22,0,0,1,0,1,.66.66,0,0,1-.13.25,1.12,1.12,0,0,1-.83.18,4,4,0,0,1-2,.06c-.39-.26-.19-.53,0-.8A1.88,1.88,0,0,1,66.3,168.66Z" style="fill:#cc212e"/><path d="M70.82,171.06A25.06,25.06,0,0,1,67.17,174c-.36.21-.6.66-1.15.55.18-.49.62-.83.65-1.36l0-.13a28.86,28.86,0,0,1,3.8-2A.29.29,0,0,1,70.82,171.06Z" style="fill:#41d1bc"/><path d="M65.61,188.69a11.52,11.52,0,0,1-3.74,3.77c-.6.45-1.23.86-1.84,1.29-.19.06-.22,0-.18-.18a73,73,0,0,0,5.75-5.08c.05,0,.07.09.05.13S65.62,188.69,65.61,188.69Z" style="fill:#303030"/><path d="M79.56,176.65a2.64,2.64,0,0,0-.93-.66c.71,0,1.06-.62,1.56-1,.9-.6,1.7-1.34,2.66-1.87.17,0,.23,0,.19.19l-2.8,2.53A9.85,9.85,0,0,0,79.56,176.65Z" style="fill:#323232"/><path d="M65.43,169.84l2.26,0q.09.06.06.12a.1.1,0,0,1-.07,0c-.91.24-1.66.89-2.6,1.05-.06.08-.11.08-.16,0l-.21-.16c-.27-.25-1-.18-.66-.87l1-.22A.29.29,0,0,1,65.43,169.84Z" style="fill:#ea3c8e"/><path d="M68.39,168.46a.62.62,0,0,0,0-.13c1.09-.27,2.15-.81,3.31-.34l-.36.48c-.28.06-.75-.15-.64.46a.54.54,0,0,1-.3.24c-.61,0-1.19.4-1.81.08C68.36,169,68.59,168.69,68.39,168.46Z" style="fill:#ea4e5c"/><path d="M73,184.78c-.25.86-1,.79-1.66.89-.36.05-.36-.22-.38-.44,0-.6-.09-1.2-.14-1.81a.35.35,0,0,1,.28-.44,1.48,1.48,0,0,1,1.88.8A2,2,0,0,1,73,184.78Z" style="fill:#e0e0e0"/><path d="M68.91,174l2.61-3.11c.74.51.26,1,0,1.53A13.06,13.06,0,0,1,68.91,174Z" style="fill:#bcc236"/><path d="M65.47,172.32h.1c.45.18,1.19,0,1.09.86h0c-1.1.14-1.93,1-3.21,1.28Z" style="fill:#0d669f"/><path d="M65.43,169.84h-.36c-.39-.33-.89-.5-1.2-.94s-.19-.45.22-.45a12.63,12.63,0,0,1,2.21.21C66.08,169.11,65.51,169.29,65.43,169.84Z" style="fill:#a3272c"/><path d="M60,186.56c-1.16.11-1.16.11-1.22-1.05,0-.26,0-.52-.05-.78s-.09-.44-.14-.69a5.56,5.56,0,0,1,1.91,0c-.12.23-.3.16-.45.17s-.64-.06-.92.14c0,.41-.14.83.55.73.21,0,.46.13.85.26l-.87.07c-.24,0-.52,0-.5.38s.2.51.6.5.75-.26,1.05.14C60.6,186.62,60.28,186.41,60,186.56Z" style="fill:#e7e7e7"/><path d="M54.44,186.22c-.7-.13-.38.83-1,.91.24-.86.45-1.68.7-2.47.13-.42.52-.17.58,0a8.59,8.59,0,0,1,1,2.31c-.44-.09-.42-.43-.56-.66s-.49,0-.57-.3a1,1,0,0,0,0-.24c0-.12,0-.3-.15-.3s-.06.2-.08.3S54.53,186,54.44,186.22Z" style="fill:#e3e3e3"/><path d="M67.71,184.18l.19-.36c.15,0,.22.06.27.18s0,.34.16.55c.12-.34-.14-.61-.06-.88,0-.12.09-.23.25-.2l1.15,2.22c-1.5-.88-1.5-.88-2.23.26-.24-.32,0-.58,0-.85S67.64,184.49,67.71,184.18Z" style="fill:#ececec"/><path d="M81.79,182.94l.9,1.7c-.68.21-.56-.78-1.29-.7s-.53.82-1.17,1l.75-2.52c.15,0,.21.06.27.18a1.82,1.82,0,0,1,0,.57c0,.08-.07.25.1.22s.1-.18.14-.28S81.64,182.91,81.79,182.94Z" style="fill:#eee"/><path d="M78.12,182.6a3.85,3.85,0,0,1,2.18-.2c-1.15.09-.88.81-.8,1.47a2.46,2.46,0,0,1-.09,1.34,3.09,3.09,0,0,1-.3-1.58C79.07,183,79,182.51,78.12,182.6Z" style="fill:#e4e4e4"/><path d="M84.6,184.53l-1.3.15c-.27,0-.36-.12-.38-.35,0-.66-.1-1.32-.16-2,0-.12,0-.24.14-.27s.24.1.26.25,0,.34,0,.51C83.29,184.25,83.29,184.25,84.6,184.53Z" style="fill:#ddd"/><path d="M74.87,184.44c.21.24.41.51.75.54s.84,0,.94-.43c.14-.64-.53-.17-.78-.52a1.17,1.17,0,0,1,1-.17c.27.07.13.4.17.61.09.4-.19.6-.49.71-.7.25-1.37.28-1.79-.5C74.73,184.59,74.75,184.47,74.87,184.44Z" style="fill:#e1e1e1"/><path d="M64.05,170.06c0,.48.51.53.66.87-.71-.06-1.42-.12-2.13-.2-.16,0-.4,0-.41-.19s.25-.27.44-.3C63.09,170.17,63.57,170.12,64.05,170.06Z" style="fill:#870f49"/><path d="M77.77,176.81a.75.75,0,0,1,1,.39c-.68.16-1,.86-1.7,1a1.15,1.15,0,0,1,.15-1.06C77.46,177.08,77.67,177,77.77,176.81Z" style="fill:#393939"/><path d="M71.52,172.44c0-.51.41-1,0-1.53a.77.77,0,0,0,0-.15c-.06-.08,0-.14,0-.18l.17-.15c0-.11.07-.13.16-.05l.05,0,.13.16a2.41,2.41,0,0,0,.62,1.23Z" style="fill:#8aa842"/><path d="M61.77,184.68c-.51.52.08,1.18-.42,1.76-.08-.81-.2-1.63-.23-2.45,0-.29.29-.22.44-.08a3.78,3.78,0,0,1,.4.56C62,184.66,61.94,184.7,61.77,184.68Z" style="fill:#e8e8e8"/><path d="M56.71,186.45a1,1,0,0,1,.17,0c.45.11,1,.12,1.12-.34s-.59-.2-.78-.65c.44.06.91-.45,1.16.23s-.15,1-.73,1.1a1.17,1.17,0,0,1-1.14-.17C56.53,186.5,56.63,186.49,56.71,186.45Z" style="fill:#ddd"/><path d="M64.92,171.09h.16l.32,1-1.81.15C63.9,171.65,64.73,171.74,64.92,171.09Z" style="fill:#5f2464"/><path d="M62.82,185.55c.35-.35,0-.75.07-1.12s-.15-.55.18-.88a9.76,9.76,0,0,1,.3,2.45c0,.12,0,.25-.14.27-.37,0-.45-.29-.6-.51S62.65,185.52,62.82,185.55Z" style="fill:#e5e5e5"/><path d="M65.08,183.77c-1.06.21-1.24.72-.69,1.95a.21.21,0,0,1-.18.19c-.92-1.08-.61-2.18.7-2.42C65,183.54,65.12,183.62,65.08,183.77Z" style="fill:#dfdfdf"/><path d="M66.65,186.05a6.77,6.77,0,0,1-.09-2.58c.47.57.15,1.33.41,1.94C66.91,185.65,67.13,186,66.65,186.05Z" style="fill:#d8d8d8"/><path d="M72.89,180.82l0-1a2.25,2.25,0,0,1,.7-.56l.65.92A2.13,2.13,0,0,0,72.89,180.82Z" style="fill:#363636"/><path d="M77.71,182.47l.23,2.6-.31,0a15.18,15.18,0,0,1-.26-2.6Z" style="fill:#d7d7d7"/><path d="M73.7,185.4l-.23-2.58.28,0a10.61,10.61,0,0,1,.25,2.58Z" style="fill:#e4e4e4"/><path d="M76,170.22l-.14,0H74.17a5.4,5.4,0,0,1,2.1-.71C76.2,169.76,76.12,170,76,170.22Z" style="fill:#c03b22"/><path d="M56,183.08l3-.29c.22.16.54-.06.75.18l-3.21.29C56.37,183.11,56.09,183.3,56,183.08Z" style="fill:#cc5a0d"/><path d="M76.21,177.53v1.4a.93.93,0,0,0-.71.91,3.05,3.05,0,0,1-.11-1.27C76,178.45,76,177.92,76.21,177.53Z" style="fill:#3c3c3c"/><path d="M60.39,177c.36.43,0,1,.31,1.47v1c-.11.11,0,.32-.19.4-.23-.88-.12-1.79-.28-2.68A.31.31,0,0,1,60.39,177Z" style="fill:#d05b09"/><path d="M64.21,185.91l.18-.19c.52.24,1,.29,1.28-.35.06-.14.18-.23.34-.13s0,.25,0,.36C65.68,186.27,65,186.39,64.21,185.91Z" style="fill:#d9d9d9"/><path d="M74.87,184.44l-.2.24c-.39-1-.27-1.43.5-1.92.19-.09.22,0,.19.17C74.75,183.29,74.8,183.86,74.87,184.44Z" style="fill:#ededed"/><path d="M56,183.08c.2,0,.43,0,.58.18l-2.09.17c-.17-.13-.43,0-.57-.18A7.64,7.64,0,0,1,56,183.08Z" style="fill:#cc5c0d"/><path d="M56.71,186.45l-.2.16c-.28-.15-.52-.32-.5-.69a1.32,1.32,0,0,1,0-.92.7.7,0,0,1,.52-.68c.19-.08.22,0,.19.18C56,185.16,56,185.68,56.71,186.45Z" style="fill:#f1f1f1"/><path d="M52,180.33l.21,2.46c-.69-.44-.25-1.12-.38-1.69C51.81,180.83,51.55,180.51,52,180.33Z" style="fill:#cb5b0b"/><path d="M56.71,184.5l-.19-.18c1-.4,1.33-.3,1.71.59C57.71,184.64,57.27,184.26,56.71,184.5Z" style="fill:#d4d4d4"/><path d="M60.54,182.42l0-1.24c.16-.22-.07-.54.18-.74a4.33,4.33,0,0,1,.15,1.52C60.93,182.21,60.84,182.4,60.54,182.42Z" style="fill:#bc550c"/><path d="M87.07,181.9a7,7,0,0,1,0,3.12Z" style="fill:#8c8c8c"/><path d="M62.82,185.55l-.19.21-.86-1.08.19-.21A4.5,4.5,0,0,1,62.82,185.55Z" style="fill:#dcdcdc"/><path d="M53.87,183.25c.19.06.41,0,.57.18a5.06,5.06,0,0,1-1.9,0c0-.15,0-.25.18-.16Z" style="fill:#e0640e"/><path d="M59.74,183c-.25-.07-.54.05-.75-.18a3.13,3.13,0,0,0,1.56-.38C60.57,183,60.12,182.94,59.74,183Z" style="fill:#d25d0f"/><path d="M53.23,176.81c.22,0,.43.29.67,0,.13.11.14.21,0,.31H53c-.16-.14-.41,0-.54-.17Z" style="fill:#b6500a"/><path d="M65.08,183.77l-.17-.28c.54-.09.79.21,1.1.67C65.48,184.27,65.4,183.77,65.08,183.77Z" style="fill:#e6e6e6"/><path d="M61.22,169c-.39.45.1,1.09-.32,1.54.09-.58-.24-1.21.22-1.74C61.23,168.84,61.24,168.91,61.22,169Z" style="fill:gray"/><path d="M38.23,174.52H36.67v-.08h1.56Z" style="fill:#1c1c1c"/><path d="M51.81,178.24l0,1.29c0,.22.25.5-.16.61l0-1.29C51.63,178.63,51.4,178.34,51.81,178.24Z" style="fill:#cb5b0b"/><path d="M81.79,182.94l-.17.2c-.36,0-.31-.34-.48-.5l-.16-.22C81.4,182.11,81.4,182.11,81.79,182.94Z" style="fill:#e5e5e5"/><path d="M75.36,182.93l-.19-.17a1,1,0,0,1,1.09,0,.16.16,0,0,1,0,.24Z" style="fill:#ececec"/><path d="M60.76,180.44c-.08.24.05.53-.18.74,0-.44,0-.88-.07-1.32l.19-.4Z" style="fill:#d15d0c"/><path d="M30.75,152.88a2.73,2.73,0,0,1,1.39,0A2.84,2.84,0,0,1,30.75,152.88Z" style="fill:#292929"/><path d="M68.07,184l-.17-.2c0-.36,0-.63.5-.57l.12.22-.15.21C68.26,183.79,68.32,184.05,68.07,184Z" style="fill:#dfdfdf"/><path d="M51.69,180.14c.19-.17.14-.4.16-.61a1.24,1.24,0,0,1,.13.8c-.23.22-.12.51-.17.77A1.84,1.84,0,0,1,51.69,180.14Z" style="fill:#c8580c"/><path d="M83,173.35l-.19-.19a1,1,0,0,1,.81-.47A1.43,1.43,0,0,1,83,173.35Z" style="fill:#262626"/><path d="M51.81,178.24c-.2.16-.14.39-.17.61a1.28,1.28,0,0,1,0-1.2c.11,0,.12.15.18.23Z" style="fill:#c8580c"/><path d="M51.81,177.88l-.18-.23a.71.71,0,0,1,.57-.6.25.25,0,0,1,.17.15C52.15,177.39,51.87,177.54,51.81,177.88Z" style="fill:#d25d08"/><path d="M76.23,183l0-.24a.55.55,0,0,1,.5.5s-.08.1-.12.1C76.38,183.34,76.33,183.12,76.23,183Z" style="fill:#dbdbdb"/><path d="M54.62,185.93c.12.19.44.08.52.34l-.7-.05-.33-.34A.35.35,0,0,1,54.62,185.93Z" style="fill:#dedede"/><path d="M26.38,155.74v1h-.16v-1A.09.09,0,0,1,26.38,155.74Z" style="fill:#181818"/><path d="M30,153a1,1,0,0,1-1,0Z" style="fill:#444"/><path d="M59.85,193.57l.18.18a1,1,0,0,1-.57.32C59.46,193.75,59.68,193.68,59.85,193.57Z" style="fill:#161616"/><path d="M52.72,183.28l-.18.16c-.24-.13-.63-.17-.36-.6Z" style="fill:#c75a0b"/><path d="M26.38,155.74h-.16v-.85h.16Z" style="fill:#313131"/><path d="M52.37,177.2l-.17-.15.3-.06c.17.07.4,0,.54.17Z" style="fill:#fb6e0e"/><path d="M65.61,188.69v-.2c.05-.12.1-.24.16-.36a.25.25,0,0,1,.12,0A.62.62,0,0,1,65.61,188.69Z" style="fill:#1c1c1c"/><path d="M73,184.78l0-1A1,1,0,0,1,73,184.78Z" style="fill:#d0d0d0"/><path d="M34.43,152.7a.57.57,0,0,1-.59,0A.5.5,0,0,1,34.43,152.7Z" style="fill:#0e0e0e"/><path d="M59.16,184.33c.27-.29.6-.17.92-.14Z" style="fill:#c7c7c7"/><path d="M56,185v.92A.78.78,0,0,1,56,185Z" style="fill:#ddd"/><path d="M60,186.56c.23-.22.53-.13.81-.15C60.61,186.67,60.31,186.57,60,186.56Z" style="fill:#cecece"/><path d="M41.9,255c-.43,0-.38-.37-.49-.6-.87-2-1.44-4.11-.58-6.47-2,1.71-1.73,4.88.35,7.17-1.52,0-3,.47-4.53.42-1.29-1-1.87-3.7-1.23-5.59a4,4,0,0,1,.2-.48c0-.11.07,0,0-.06s-.07.09-.14.11a4.07,4.07,0,0,0,.19,5.49c.16.18.57.26.38.66l-.87,0c-2.91.09-4.22-1-4.79-3.83a4.34,4.34,0,0,1,.18-3,4.71,4.71,0,0,1,1.87-.9,18.44,18.44,0,0,1,9.83-1,16.11,16.11,0,0,1,4.16,1.53,5.19,5.19,0,0,0,5-.12,44.92,44.92,0,0,0,5-3.13c.43-.31.81-.77,1.43-.71a11.68,11.68,0,0,0,.27,1.36.72.72,0,0,1-.25.84,74.5,74.5,0,0,1-6.14,5.51c-2.15,1.66-4.67,2.07-7.24,2.39C43.67,254.68,42.79,254.82,41.9,255Z" style="fill:#e5e5e5"/><path d="M48.88,211.36c-.36.88-.73,1.76-1.07,2.65a.83.83,0,0,1-.7.55,43.93,43.93,0,0,1-4.69.86,2.26,2.26,0,0,1-1.34-.25,68.49,68.49,0,0,1-7.78-4.75c-.65-.48-1.16-1-.87-2,.21-.67-.35-1.2-.85-1.6-1.28-1-2.59-2-3.87-3-.34-.26-.66-.56-1-.86a.9.9,0,0,1-.21-1.24,1.52,1.52,0,0,0-.4-2,23.51,23.51,0,0,0-5.31-3.59c-.46-.25-.93-.48-1.39-.72,0-.59.51-.46.85-.47a10.9,10.9,0,0,1,6.7,2c1.3.92,2.67,1.74,3.88,2.79a4.63,4.63,0,0,1,1.92,2.59c.1.51.62.65,1,.84,2,.87,4,1.61,5.91,2.56a7.35,7.35,0,0,1,1.05.61c.72.55.7,1-.06,1.46a2.45,2.45,0,0,0-.63.4c.2.37.6.41.93.51,1.06.31,2.11.65,3.16,1a4.28,4.28,0,0,1,2,1.25,1,1,0,0,0,1.18.29,3.84,3.84,0,0,1,1.1-.26C48.68,211.07,49,211,48.88,211.36Z" style="fill:#7f7f7f"/><path d="M101,243.56a8.29,8.29,0,0,1,1,5.51,2,2,0,0,1-.92,1.32,11.83,11.83,0,0,1-2,1.3c0-.89.52-1.68.59-2.57a3.24,3.24,0,0,0-1-3,5.44,5.44,0,0,1,.37,5.18,2.19,2.19,0,0,0-.1.51A42.21,42.21,0,0,1,94.5,254a3.92,3.92,0,0,1-3,.08c-3.64-1.51-7.28-3-10.89-4.55a3,3,0,0,1-1.72-3.67c.39-.3.79-.1,1.16,0a34,34,0,0,1,3.93,1.4c.42.19.85.36,1.28.53a4.74,4.74,0,0,0,5.25-.91,11.76,11.76,0,0,1,4.64-3,18.26,18.26,0,0,1,5.15-.57A2.38,2.38,0,0,1,101,243.56Z" style="fill:#e5e5e5"/><path d="M48.88,211.36c-.53-.28-1,.06-1.45.22a1.07,1.07,0,0,1-1.38-.37,3.19,3.19,0,0,0-1.72-1.11c-1.37-.45-2.75-.89-4.12-1.35-.23-.08-.59-.14-.62-.42s.39-.25.58-.39.26-.13.39-.2c.76-.41.78-.65.06-1.13A40.44,40.44,0,0,0,35,204c-.5-.22-1-.42-1.52-.63s-1.09-.52-1.07-1.3a1.25,1.25,0,0,0-.38-.86,25.78,25.78,0,0,0-8.49-5.6,12.41,12.41,0,0,0-3.75-.4.35.35,0,0,0-.4.24l-2.22-1.06a9.14,9.14,0,0,1,5.8-1.64,13,13,0,0,1,8.09,4,37.6,37.6,0,0,0,10.83,7.48,23.09,23.09,0,0,0,8.49,2.39c.48,0,.63.14.39.61C50.15,208.63,49.52,210,48.88,211.36Z" style="fill:#666"/><path d="M101,243.56a36,36,0,0,0-4.41.26,10.17,10.17,0,0,0-5.79,3.09,5.08,5.08,0,0,1-6.07,1,26.6,26.6,0,0,0-5.89-2l.55-3.66a29.48,29.48,0,0,0,.06-3.12c0-.33,0-.68.41-.74a33.33,33.33,0,0,1,8-.49,19.45,19.45,0,0,0,1.28,4.4c.23.5-.16.53-.42.64A4.94,4.94,0,0,0,86,245.6c-.13.32-.29.66.1.82s.38-.28.47-.49a4.38,4.38,0,0,1,2.89-2.55c2.07-.64,4-1.61,6.16-2.07A4.52,4.52,0,0,1,101,243.56Z" style="fill:#7f7f7f"/><path d="M57.92,244.47c-1.77,1.21-3.49,2.48-5.37,3.52-1.47.82-3,1.64-4.75,1.17a10.23,10.23,0,0,1-1.86-.72,15.44,15.44,0,0,0-12.14-.67c-1.07.34-2.13.71-3.2,1.08a3.52,3.52,0,0,1,.93-1.45,11.68,11.68,0,0,1,12.31-2.61,8.43,8.43,0,0,1,3,2.29c.16.19.31.61.66.32s0-.53-.13-.77a5.8,5.8,0,0,0-2.31-2.06c2.45-.64,3.34-2.68,4.48-4.46a1.87,1.87,0,0,1,1.08-.29h6.69a1.28,1.28,0,0,1,1,.27A28,28,0,0,0,57.92,244.47Z" style="fill:gray"/><path d="M53.07,206.49A44.21,44.21,0,0,1,51.41,211a51.21,51.21,0,0,0-2.84,9.61,21.72,21.72,0,0,0,0,6.39c.24,2.14.53,4.28.8,6.42.15,1.14.29,2.29.45,3.43,0,.25.16.51-.13.69a46,46,0,0,1-1.43-5.69c-.63-2.81-1.21-5.64-1.82-8.46-.44-2,.18-3.94.75-5.86A89,89,0,0,1,51.57,207C51.9,206.22,52.53,206.52,53.07,206.49Z" style="fill:#0d4173"/><path d="M70.34,214.65c.72.67,1.18,1.55,1.91,2.23a32.88,32.88,0,0,0,3.36,3,7.35,7.35,0,0,1,2.81,3.56c.16.43.93.68.45,1.33,0-.14,0-.34-.09-.41s-.28.09-.36.22a2.49,2.49,0,0,1-.67.87,13,13,0,0,0-3.64-5,30.28,30.28,0,0,0-4.35-3c-.48-.3-.57-.53-.28-1S70.05,215.25,70.34,214.65Z" style="fill:#0d4073"/><path d="M58.32,240.1H49.57a2.44,2.44,0,0,0,.1-.24,1.94,1.94,0,0,1,2.27-1.41c1.9.18,3.82.07,5.74.08a2.18,2.18,0,0,0,1.22-.22A6.1,6.1,0,0,1,58.32,240.1Z" style="fill:#4d4d4d"/><path d="M87.91,237.85A1.85,1.85,0,0,1,87,238a66.11,66.11,0,0,0-6.89.51c-.5,0-.52.29-.54.68a10.4,10.4,0,0,1-.15,3c0-1.53,0-3.07,0-4.6,0-.34,0-.61.48-.64,1.74-.09,3.46-.23,5.19-.34a11.42,11.42,0,0,0,1.3-.12C87.79,236.23,88,236.38,87.91,237.85Z" style="fill:#4d4d4d"/><path d="M78.85,224.94c.69,1,.4,2.09.28,3.11-.19,1.54-.32,3.1-.41,4.64a35.68,35.68,0,0,0-.21,3.72c-.56-.16-.36-.69-.42-1-.48-2.79-.88-5.58-.13-8.4A10,10,0,0,1,78.85,224.94Z" style="fill:#0d4173"/><path d="M36.08,255.6c-1.86-1.79-2.29-3.82-1.2-5.68.14-.24.23-.54.57-.59.21.23.11.49,0,.72-.64,1.65,0,3.14.59,4.62a2.15,2.15,0,0,1,.28.71Z" style="fill:#060606"/><path d="M54.25,200c-.31.94,0,1.94-.3,2.89-.19.54-.26,1.13-.42,1.68-.08.3-.22.57.23.66a.68.68,0,0,1-.22.12c-1.3.2-1.33.13-.91-1.09s.87-2.7,1.29-4.05C54,200.07,53.94,199.8,54.25,200Z" style="fill:#0d4072"/><path d="M98.91,251.79c-.16-.45.12-.84.21-1.24A5.54,5.54,0,0,0,98,245.67a2.1,2.1,0,0,1,1.73,1.77,5.3,5.3,0,0,1-.51,3.7c-.09.18-.25.32-.21.55A.14.14,0,0,1,98.91,251.79Z" style="fill:#090909"/><path d="M36.34,255.38c-1-1.79-1.66-3.64-.88-5.71a.79.79,0,0,0,0-.34c.16-.25,0-.67.71-.81a6.55,6.55,0,0,0,.49,6.95Z" style="fill:#8e8e8e"/><path d="M81.78,103.77c-1.61.14-3.13.83-4.84.76.19.56.35,1.07.53,1.58s.72.53,1.17.44c1-.2,2-.45,3-.67.74-.15,1.49-.24,2.22-.42a1.75,1.75,0,0,1,2.07.83v2c-.24.07-.35-.09-.49-.18a2.9,2.9,0,0,0-4,.59A11.07,11.07,0,0,0,79,114.13a10.09,10.09,0,0,0-.17,2.85c0,.3,0,.6.4.78a43,43,0,0,0,8.63,3.32c.79-.07,1.48.39,2.25.4a.93.93,0,0,1,.24,0c.31.24.77.23,1,.57a.16.16,0,0,0,.13,0c.27.5-.19.5-.43.57A9,9,0,0,0,87.56,125a4.31,4.31,0,0,0-.9,1.72,1.92,1.92,0,0,0,1,2.07,14.21,14.21,0,0,0,4.71,1.95,2.05,2.05,0,0,0,1.58-.28c.27-.17.5-.42.85-.39a.4.4,0,0,1,.27.48,9.2,9.2,0,0,1-2,4.59.46.46,0,0,1-.23.12c-.39-.14,0-.54-.27-.76-1.64,1.41-3.68,1.63-5.68,1.86a50.6,50.6,0,0,1-17.13-.78,17.55,17.55,0,0,1-6.89-3.34c0-.18,0-.29.22-.2l2.25.28c-.76-.86-2.71-1.48-4.9-1.73-2-.22-3.34.84-4.67,2.44.66-.28,1.12-.46,1.57-.68a7.16,7.16,0,0,1,3.29-.66,1.05,1.05,0,0,1,1.11.74c.51,1.23,1.1,2.43,1.64,3.64,1.71,3.87,4.73,5.6,8.9,5.56a63.76,63.76,0,0,0,8.4-.73c3.52-.5,7-1.07,10.55-1.64.33-.06.4,0,.47.29a6.15,6.15,0,0,1,.31,1.7c0,.09,0,.22,0,.22-.79,0-1.13.59-1.48,1.16-.17.28-.39.6-.75.48-.71-.25-1.08.19-1.49.61-.26.28-.46.6-.73.86s-.65.63-1,.05c-.25-.38-.62-.22-1-.1-.76.28-1.49.65-2.27.89a15.43,15.43,0,0,1-6.34.68c-4-.47-8.11-.92-12.18-1.11l-3.93-.24c-2.33,0-4.48-.88-6.71-1.36a2.24,2.24,0,0,1-.5-.16c-.76-.34-.83-.88-.14-1.35a10.09,10.09,0,0,1,2.24-1,1.92,1.92,0,0,0,.64-.26c-1.6,0-3.16,0-4.72,0-.51,0-1.21.06-1.32-.55s.58-.71,1-.92c.78-.38,1.63-.61,2.45-1.09a1.65,1.65,0,0,0-.93-.32,38.07,38.07,0,0,1-4.82-1.18c-.5-.16-1.31-.22-1.16-.9s.9-.44,1.44-.41a17.64,17.64,0,0,1,2.17.18c.25,0,.55.08.72-.17s0-.56-.11-.81a10.41,10.41,0,0,0-2.2-2.34c-.53-.45-1.06-.9-1.58-1.37s-.52-1.05.2-1.44a3.93,3.93,0,0,1,1.67-.45c.26,0,.53,0,.79,0s.82,0,1-.36-.19-.75-.45-1c-.7-.81-1.63-1.39-2.35-2.2a5.88,5.88,0,0,1-.58-.64c-.45-.64-.28-1,.49-1.12s1.34,0,2,0c1.33-.09,1.6-.49,1.09-1.73a33.36,33.36,0,0,1-1.93-5.31,5.22,5.22,0,0,1-.16-1.47c0-.89.43-1.14,1.25-.82a3.24,3.24,0,0,0,1,.36c-.1-.84-.19-1.65-.3-2.46a14.7,14.7,0,0,1,.24-3.63c.05-.46.29-.93.85-.39s.64.15.79-.26a22.51,22.51,0,0,0,1-3.87,7.71,7.71,0,0,1,.46-1.85,1.09,1.09,0,0,1,1.63-.64c.54.22,1,.55,1.58.8.14-.3-.08-.5-.15-.73-.27-.88,0-1.22.88-1.14a16,16,0,0,1,3.08.9l.48.17a5,5,0,0,1-1.11-1.44c-.22-.57,0-.82.56-.84a2.82,2.82,0,0,1,1.17.3c2.05.82,4.05,1.76,6.11,2.54a4,4,0,0,0,.88.28,5.14,5.14,0,0,1-.9-1.27c-.09-.24-.2-.51,0-.74s.49-.15.73-.06c.76.28,1.5.62,2.25.94a27.53,27.53,0,0,0,2.92,1c.1,0,.12-.08.09-.14-.18-.32-.57-.59-.36-1s.7-.35,1.1-.35a7.4,7.4,0,0,1,2.75.77c1.27.51,2.5,1.1,3.71,1.72C82,103.23,82.65,103.49,81.78,103.77Z" style="fill:#e5e5e5"/><path d="M81.78,103.77c0-.14.56-.16.13-.35-2.15-.93-4.16-2.2-6.52-2.58-.36-.06-.85-.22-1.06.13s.28.62.48.92.33.25.29.51a3.09,3.09,0,0,1-1.66-.37c-1.44-.54-2.86-1.14-4.29-1.7-.16-.06-.37-.27-.54,0s0,.33.1.49A7.8,7.8,0,0,0,70,102.48c-.49.22-.81,0-1.12-.18-2.23-.9-4.45-1.85-6.68-2.75-.43-.18-1.07-.58-1.35-.14s.31.92.65,1.3.61.59,1.09,1A16.62,16.62,0,0,1,60,101a9.87,9.87,0,0,0-1.94-.5c-.51,0-.72.14-.49.66q.23.48.42,1c.05.15.23.32,0,.46s-.32,0-.47-.09c-.51-.28-1-.59-1.53-.83-.93-.45-1.28-.27-1.53.78-.32,1.29-.56,2.6-.87,3.9A12.35,12.35,0,0,1,53,108.1c-.31.77-.52.77-1,.08l-.39-.49a14.2,14.2,0,0,0-.35,4.24,21.08,21.08,0,0,0,.28,2.24c.09.58,0,.8-.61.47l-.08,0c-.47-.16-.93-.73-1.42-.33s-.23,1-.13,1.57a25.46,25.46,0,0,0,1.89,5.4c.87,2,.61,2.41-1.56,2.4-.5,0-1,0-1.48,0-.26,0-.59,0-.71.22s.13.49.32.66c.62.61,1.26,1.2,1.89,1.8A9.33,9.33,0,0,1,51.18,128c.29.44.17.75-.32,1a5.06,5.06,0,0,1-1.55.18,3.8,3.8,0,0,0-1.84.4c-.58.34-.67.64-.1,1.09a26.66,26.66,0,0,1,3.29,3,2.72,2.72,0,0,1,.83,1.4c.07.48-.06.79-.64.73-.87-.1-1.74-.17-2.6-.25a1.64,1.64,0,0,0-.43,0c-.35.09-.92-.1-1,.34s.5.38.82.48a50.63,50.63,0,0,0,5.56,1.36c.34.06.66.16,1.13.28a3.45,3.45,0,0,1-1.42.81c-.66.3-1.34.55-2,.86-.24.11-.66.2-.57.54s.47.28.75.29c1,0,2,0,3.05,0H57c-.17.38-.49.39-.73.49-.83.33-1.68.64-2.51,1-.31.13-.73.28-.72.67s.49.43.8.51c1.29.34,2.59.63,3.88,1a13.39,13.39,0,0,0,3,.67c-1.54,0-3.07,0-4.6,0-.71,0-1.4.27-2.07.2-1.87-.18-2.61,1.33-3.86,2.51a5.11,5.11,0,0,1,.6-2.46,1.77,1.77,0,0,1,.28-.69c-.17.18-.25.4-.47.47a5.8,5.8,0,0,0-.83,2,9.46,9.46,0,0,1-1.22-8.24c-1,2.65-1.63,5.3-.21,8a20,20,0,0,1-4.21-4.76A8.65,8.65,0,0,1,42.91,137c0-1.07,0-2.14.05-3.21a1.66,1.66,0,0,0,0-.91c-.08,0,.11-.3-.11-.08,0,0-.06.09-.1.13a23.18,23.18,0,0,0-.72,5.5c0,.6.1,1.2.17,2a5.76,5.76,0,0,1-1.38-2.65,15.82,15.82,0,0,1,.23-7.91c.51-2.08,1.14-4.13,1.71-6.2a8,8,0,0,0,.16-.85.4.4,0,0,1,0-.13c-.12,0-.14.1-.21.15A33.33,33.33,0,0,0,39,131.3a22,22,0,0,0-.51,4.06,18.7,18.7,0,0,1-1.33-4.31c-.8-4.12.71-7.56,3.11-10.75a1.54,1.54,0,0,1,.8-.5,7.7,7.7,0,0,0,3.08-2.34.5.5,0,0,0,0-.41c-1.16,1.07-2.24,2.24-3.83,2.61a9.82,9.82,0,0,1-4.67.09c1.14-.49,2.3-1,3.42-1.47a19.41,19.41,0,0,0,5.06-3.17,6.83,6.83,0,0,0,1.3-1.73c.17-.09.29-.38.55-.16.51.28.41-.06.26-.3-.41-.69-.84-1.38-1.3-2a6.29,6.29,0,0,1-1.22-3.38c0-.21-.25-.48.18-.53a7.19,7.19,0,0,0,1.92,2.26c.19.06.27,0,.18-.19-2-2.06-2.82-4.72-3.5-7.44a23.28,23.28,0,0,0-3.12-8,16.82,16.82,0,0,0-5.85-4.84,1.51,1.51,0,0,0-2.18.59,6.45,6.45,0,0,0-1,3.46,38.81,38.81,0,0,0,.2,5.39c.18,2.28.37,4.56.66,6.83a28.53,28.53,0,0,0,3,9.39c.16.31.35.61.48.93a4,4,0,0,0,3.53,2.82,15.1,15.1,0,0,1-2.83,1.14,5.36,5.36,0,0,0-1.13-.61,10.31,10.31,0,0,1-5.68-8.65,13.69,13.69,0,0,1-.07-1.59,36.82,36.82,0,0,0,6.53,9.11c.08,0,.14.14.25.13a1.3,1.3,0,0,1,0-.13c-1.16-1.52-2.32-3-3.46-4.57a5.64,5.64,0,0,1-1-1.53,19.81,19.81,0,0,1-1.47-4.63,32.51,32.51,0,0,1-.08-6c.08-1.36.1-2.72.11-4.08A47,47,0,0,1,30,90.18a7.17,7.17,0,0,1,.46-1.58,2.13,2.13,0,0,1,3.16-1.29,7.53,7.53,0,0,1,1.89,1.08c2.28,1.85,4.82,3.36,7,5.3A28.4,28.4,0,0,1,50.09,104a4.37,4.37,0,0,1,.36,1.81A21,21,0,0,0,51.77,99c0-.38,0-.75-.07-1.13s-.18-.61.29-.67.17-.44.16-.65A10.75,10.75,0,0,0,52,95.29a6,6,0,0,1,2.82-5.85c.25-.15.53-.33.8-.12s.13.54,0,.8a23.68,23.68,0,0,0-1.39,3.19,4,4,0,0,0-.29,2.17,2.42,2.42,0,0,0,1.15-1c2.13-3.76,5.55-5.64,9.6-6.6.37-.09.88-.37,1.1.1s-.29.68-.59.93a20.38,20.38,0,0,1-4.94,2.89,14.15,14.15,0,0,0-5.41,4.26,7.66,7.66,0,0,1-.69.76,47.87,47.87,0,0,0,4.51-2.34c4-2.35,8.28-2.56,12.71-1.44,2.56.65,5.1,1.38,7.65,2.08a41.91,41.91,0,0,0,9.76,1.61c.61,0,1.21.15,1.82.21.16,0,.39.06.4.26s-.25.29-.43.31c-.64,0-1.27.14-1.91.19a52.41,52.41,0,0,1-15.65-1,60.39,60.39,0,0,0-6.25-1.19,14.78,14.78,0,0,0-6,.54.68.68,0,0,0-.46.3c.15.34.51.31.79.36a57.05,57.05,0,0,0,6,.66c2.92.22,5.85.28,8.77.5l.34,0c2.88-.11,5.74.21,8.62.17a52.18,52.18,0,0,0,5.29-.34,4.43,4.43,0,0,0,2-.77,8,8,0,0,1,3.74-1.42c-2,2-4,3.83-6.82,4.41a13.79,13.79,0,0,1-4.92-.14,9.31,9.31,0,0,0-2.44-.24,5.84,5.84,0,0,0,3.24.85A11.93,11.93,0,0,1,92,103a11.47,11.47,0,0,1,3.2,4.94,31.58,31.58,0,0,0-7.73-3.26,15.06,15.06,0,0,0-4.37-1.18C82.57,103.4,82.29,104,81.78,103.77Z" style="fill:#666"/><path d="M43.94,109.82c-.79,0-.83,0-.62.75.26,1,.34,2.11,1.57,2.5.3.1.16.33.07.51a4.88,4.88,0,0,1-1,1.28,17.11,17.11,0,0,1-4.53,2.89c-1.09.5-3.14-.39-3.85-1.66a35.3,35.3,0,0,1-3.43-8.42,55.06,55.06,0,0,1-1-8.18,44.85,44.85,0,0,1-.36-6.34,7.33,7.33,0,0,1,.7-3.12c.62-1.22,1.24-1.38,2.45-.71a15.37,15.37,0,0,1,7.83,10.44c.63,2.67,1.58,5.27,1.72,8A7.48,7.48,0,0,0,43.94,109.82Z" style="fill:#cbcbcb"/><path d="M64.68,145a51.81,51.81,0,0,1,9.47.63c3.88.56,7.71.53,11.32-1.34.87-.45,1.11-.3,1.28.59.78-.43,1.07-1.29,1.73-1.79.36-.28.65-.73,1.14-.18.16.17.31.07.42-.1a5.54,5.54,0,0,0,.33-.51,1.46,1.46,0,0,1,1.58-1c.36,1.5-.45,3.43-1.56,3.68a4.45,4.45,0,0,0,.41-2,11.49,11.49,0,0,1-2,3.59l-1.06,1c-.26,0-.43.33-.81.11a6.76,6.76,0,0,0,1.93-3.8c-1.18,1.53-1.77,3.32-3.53,4.08a17.45,17.45,0,0,1-2.84.49l1.45-1.21a3.44,3.44,0,0,0,1.2-1.28c-3,1.79-6.15,1-9.23.67-3.64-.41-7.22-1.23-10.88-1.52A1.21,1.21,0,0,1,64.68,145Z" style="fill:#cbcbcb"/><path d="M35.1,121.27a5.39,5.39,0,0,1-4.56-1.55c-1.4-1.28-2-2.48-2.16-5,.31,0,.37.35.61.43a13.23,13.23,0,0,0,5.21,3.91,2.61,2.61,0,0,0,1.26.24c-.16.25-.66.21-.61.53s.49.33.79.39a12.52,12.52,0,0,0,4,0c-.13.58-.13.58-.62.63Z" style="fill:#656565"/><path d="M46.06,113.22l-.55.16c0-.22.14-.53-.17-.58-1.41-.24-1.36-1.43-1.62-2.44C45,110.94,45.34,112.22,46.06,113.22Z" style="fill:#636363"/><path d="M50.63,144.77a2.27,2.27,0,0,1,.81-1,2,2,0,0,1-.62,1.26Z" style="fill:#101010"/><path d="M42.79,132.94a.6.6,0,0,1,.32-.62c0,.54.12,1-.15,1.48C42.86,133.52,43.07,133.18,42.79,132.94Z" style="fill:#333"/><path d="M42.74,139.72h-.07l-.07,0a1.3,1.3,0,0,1-.09-1.14Z" style="fill:#a3a3a3"/><path d="M44,107c-.21.12-.13.35-.18.53a1.15,1.15,0,0,1-.13-.94C43.9,106.64,43.92,106.81,44,107Z" style="fill:#464646"/><path d="M42.79,122.82c.09-.23.14-.49.43-.62a.59.59,0,0,1-.26.6Z" style="fill:#303030"/><path d="M42.55,138c-.18-.16-.13-.36-.08-.56C42.72,137.62,42.51,137.83,42.55,138Z" style="fill:#5b5b5b"/><path d="M46.08,109c.15.13.36.29.18.46s-.28-.12-.36-.27Z" style="fill:#313131"/><path d="M64.91,134.13A25.86,25.86,0,0,0,76,137.29a4.2,4.2,0,0,1,.59.14c-.22.27-.59.25-.84.44s-.55.13-.31.5.43,1,1,.77,1-.48.73-1.17a.37.37,0,0,1,.25-.49,48.1,48.1,0,0,0,5.37,0c3-.25,6-.5,8.76-1.95a.86.86,0,0,1,.89,0,1.48,1.48,0,0,0,1.16.19,5.89,5.89,0,0,1-1.16,1.65,3.29,3.29,0,0,0-1.21.05,64.08,64.08,0,0,1-8.66,1.72c-1.85.19-3.56.86-5.36,1.19-.3.06-.53.34-.83.47l-.35,0A1.22,1.22,0,0,1,75,140a1.75,1.75,0,0,0-1.52-1c-.92-.12-1.81-.38-2.73-.52a6.83,6.83,0,0,1-3.85-2,21.33,21.33,0,0,0-2-1.84.6.6,0,0,1-.25-.53C64.76,134.06,64.83,134.05,64.91,134.13Z" style="fill:#e5e5e5"/><path d="M64.71,134.15c1.24,1.13,2.41,2.32,3.72,3.35.92.73,2.16.7,3.27,1,.72.17,1.47.27,2.21.38a1.52,1.52,0,0,1,1.23.95,1.75,1.75,0,0,0,.92.95,11.46,11.46,0,0,1-7.51-1.18A10.93,10.93,0,0,1,64.63,135C64.5,134.7,64.15,134.36,64.71,134.15Z" style="fill:#fefefe"/><path d="M76.41,140.74c.32-.69,1-.65,1.56-.83a12.57,12.57,0,0,1,2.62-.82c3.24-.18,6.33-1.14,9.5-1.65a12.68,12.68,0,0,0,1.34-.37c.38-.1.78-.25,1,.24a3.07,3.07,0,0,1-3,1.76,57.73,57.73,0,0,0-8.76,1.07A36.12,36.12,0,0,1,76.41,140.74Z" style="fill:#fdfdfd"/><path d="M92.78,135.24a12.16,12.16,0,0,0,2-4.55c0-.21.13-.39-.06-.56a3,3,0,0,1,1.44-1.8c.22.09.21.25.13.43a11.67,11.67,0,0,1-1.81,5.88C94.06,135.23,93.6,135.77,92.78,135.24Z" style="fill:#cacaca"/><path d="M64.71,134.15c-.3.26,0,.44.07.67a15.58,15.58,0,0,0,3.77,4.76,8.53,8.53,0,0,1-3.8-3.28,17.64,17.64,0,0,1-1.51-2.86c.5.38,1.19.23,1.67.69Z" style="fill:#e3e3e3"/><path d="M75.7,137.8c.12-.58.62-.23.92-.37l.83,0-.17.48c-.15.53-.38,1.07-1,.92A.76.76,0,0,1,75.7,137.8Z" style="fill:#f8f8f8"/><path d="M63,132l-.22.2-.45-.23C62.63,131.77,62.83,131.91,63,132Z" style="fill:#c8c8c8"/><path d="M96.12,128.39l-1.39,1.74a3.1,3.1,0,0,1-3.54.54,17.13,17.13,0,0,1-3.76-1.74,1.94,1.94,0,0,1-.93-2.3.9.9,0,0,1,.75,0,15.77,15.77,0,0,0,6.52-.37A4.57,4.57,0,0,0,95.93,125c.28-.27.52-.66,1-.49a11.16,11.16,0,0,1-.52,3.39C96.34,128.07,96.33,128.29,96.12,128.39Z" style="fill:#1a1a1a"/><path d="M90.33,121.59l-.06,0H90.2a.45.45,0,0,1-.16-.22c0-.6-.34-.8-.89-.79a4.82,4.82,0,0,1-1.46-.16c-.57-.16-1-.33-1-1.06,0-.38-.31-.44-.61-.49s-.81,0-1.21,0c-.89-.08-1.11-.46-.78-1.35.29-.49.55-1,.87-1.47a1.77,1.77,0,0,1,1.58-.91,9.32,9.32,0,0,0,4.12-.44c-1.5,1.81-3.6,2.54-5.65,3.37a2.91,2.91,0,0,0,1.94-.4,1.8,1.8,0,0,1,1.42-.06c1.49.58,3.11.21,4.72.59-1.55,1.68-3.77.92-5.55,1.63a10.86,10.86,0,0,0,5.41-.74,8.33,8.33,0,0,1-1.39,2.65C91.1,122.09,90.72,121.81,90.33,121.59Z" style="fill:#656565"/><path d="M80.43,111.49a7.63,7.63,0,0,1,1.41-2.36A2.89,2.89,0,0,1,83.91,108a1.64,1.64,0,0,1,1.93,2,28.53,28.53,0,0,1-.85,4.84,3.81,3.81,0,0,1-4.12,2.84,3.15,3.15,0,0,1-.43-.05c-1.24-.12-1.24-.12-1.21-1.41.1-.14,0-.47.36-.37a.9.9,0,0,1,.15.19,1.54,1.54,0,0,0,2.72-.11,5,5,0,0,0,.69-2.21,6.41,6.41,0,0,0,0-2.58c-.11-.39-.16-.83-.76-.7a1.28,1.28,0,0,0-.52.41.62.62,0,0,1-.19.12,2.15,2.15,0,0,0-.72.51.82.82,0,0,1-.2.12A.38.38,0,0,1,80.43,111.49Z" style="fill:#fdfdfd"/><path d="M87.4,124.91A8.26,8.26,0,0,1,91,122.49c.19-.07.5,0,.49-.36a12.78,12.78,0,0,0,2.83.17,2.82,2.82,0,0,1,2.43,1,1.29,1.29,0,0,1-.52.86,7.82,7.82,0,0,1-4.52,2c-.72,0-1.44,0-2.16,0a4,4,0,0,1-1.61-.5C87.71,125.49,87.35,125.35,87.4,124.91Z" style="fill:#333"/><path d="M87.4,124.91a3.55,3.55,0,0,0,2.1,1,8.39,8.39,0,0,0,2.4,0,7.64,7.64,0,0,0,4.89-2.61,1,1,0,0,1,.16,1.16c-.6.26-.92.86-1.46,1.21a7,7,0,0,1-2.83,1,13.92,13.92,0,0,1-6.16-.08A2.92,2.92,0,0,1,87.4,124.91Z" style="fill:#666"/><path d="M84.08,117.49c0,1.13,0,1.12,1.16,1.14.4,0,.81,0,1.21.06s.89.13.48.79c-.27.45.13.61.48.7a9.48,9.48,0,0,0,2.06.21c1,0,1,.11.71,1-.75.26-1.32-.19-1.93-.49L82,118.57c-.06-.15,0-.22.16-.26A4,4,0,0,0,84.08,117.49Z" style="fill:#e3e3e3"/><path d="M79.58,116l-.06-.15a1.17,1.17,0,0,1,0-.88,15.74,15.74,0,0,0,.54-2.63c.24-.14.4-.45.74-.36.32.42.86.46,1.27.71a1.52,1.52,0,0,1,.31.91,2.93,2.93,0,0,1-1.15,2.49A1.14,1.14,0,0,1,79.58,116Z" style="fill:#000101"/><path d="M88.25,120.91l1.93.49,0,.21a4.64,4.64,0,0,1-2.31-.53Z" style="fill:#232323"/><path d="M80.75,112l-.68.32c0-.33.5-.46.36-.85l.34,0A.38.38,0,0,1,80.75,112Z" style="fill:#4d4cad"/><path d="M90.33,121.59c.41.06.79.29,1.22.12l-.15.38C91.05,121.92,90.5,122.15,90.33,121.59Z" style="fill:#151515"/><path d="M79.53,115v.88l-.29.34A1.57,1.57,0,0,1,79.53,115Z" style="fill:#8e8da6"/><path d="M96.12,128.39a.76.76,0,0,1,.31-.49,1.17,1.17,0,0,1-.13.86Z" style="fill:#939393"/><path d="M82.18,118.31l-.16.26c-.15,0-.41-.12-.35-.22S82,118.27,82.18,118.31Z" style="fill:#919191"/><path d="M95.8,95.62a15,15,0,0,0-4,1.94,4.69,4.69,0,0,1-2.83.64c-2.05.1-4.1.29-6.16.21-3.59-.14-7.18-.19-10.76-.38-3-.15-6-.42-9.06-.69a23.86,23.86,0,0,1-2.64-.45c-.24,0-.57-.07-.56-.43s.29-.35.5-.42a13.78,13.78,0,0,1,6.58-.66c3.52.58,7,1.38,10.54,1.93a34.08,34.08,0,0,0,7.88.36A51.67,51.67,0,0,0,91,97.26c-1.44-.15-2.77-.35-4.1-.4a40.09,40.09,0,0,1-8.74-1.69c-2.59-.68-5.18-1.41-7.79-2C65.74,92,61.59,93,57.62,95.34c-1.26.74-2.6,1.38-4,2.13a8.23,8.23,0,0,1,1.59-2.15,13.81,13.81,0,0,1,5.08-3.7,24.08,24.08,0,0,0,5-3c.17-.14.48-.27.35-.52s-.41,0-.61,0a18.54,18.54,0,0,0-6.58,2.79,16.56,16.56,0,0,0-3,3.53,13,13,0,0,1-1,1.11c-.2.19-.38.54-.71.36s-.18-.54-.15-.8a11.25,11.25,0,0,1,1.11-3.63c.24-.53.52-1,.77-1.56.07-.15.25-.32.08-.47s-.37,0-.53.13a6.48,6.48,0,0,0-3,5.72,5.34,5.34,0,0,1,.53-4c1.37-2.68,3.8-3.87,6.72-4.67-.27.38-.44.61-.61.83-2.07,2.06-3.24,4.62-4.41,7.45a.92.92,0,0,0,.79-.76c1.21-3.43,3.8-5.23,7.17-6.19,2.27-.65,4.65-.9,6.89-1.9L67.2,88.64c-1.21,1.78-3.18,2.27-5,2.8a12,12,0,0,0-4.87,2.66c-.64.58-1.31,1.13-2,1.69,0,.09-.17.16-.11.23s.2,0,.28-.06c.81-.66,1.63-1.3,2.43-2a13.8,13.8,0,0,1,4.32-2.16,24,24,0,0,0,3.48-1.33,1.71,1.71,0,0,1,.77-.12,23.9,23.9,0,0,1,12,2.37,35.75,35.75,0,0,0,8.69,2.93,23.06,23.06,0,0,0,6.48,0c.72-.07,1.43-.2,2.15-.31l.22.1Z" style="fill:#4d4d4d"/><path d="M81.48,93.69,77.36,92l-.61-.3c1.31-.7,2.64-1.14,3.89-1.78,1.92-1,3.89-1.9,5.87-2.78s2.48-.64,2.23,1.53-.06,4-.12,6.07c0,.44,0,.74-.63.78-.83,0-.72-.38-.58-.89a7.36,7.36,0,0,1,.1-1.25,3.72,3.72,0,0,0-.07-1,1,1,0,0,1,0-.38c.09-1.19.24-2.37.25-3.55,0-.83-.21-.94-.93-.49A16.57,16.57,0,0,0,83.57,91c-.54.6-1,1.28-1.51,1.91A2,2,0,0,1,81.48,93.69Z" style="fill:#333"/><path d="M87.6,91.94v.38a2,2,0,0,1,0,1.07,1.74,1.74,0,0,1-.33,1c-.23.28-.24.81-.69.81s-.76,0-1-.29.13-.47.24-.69a6.53,6.53,0,0,0,.68-2.14c0-.26,0-.56-.23-.7s-.45,0-.61.21a8.58,8.58,0,0,0-2.15,2.78l-2-.69c-.2-.41.47-.47.33-.85,1.26-1,2.14-2.44,3.33-3.55a8.8,8.8,0,0,1,1.64-1.41c.23-.12.46-.31.73-.14s.15.41.14.64C87.58,89.56,87.74,90.75,87.6,91.94Z" style="fill:#b2b2b2"/><path d="M87.24,94.4l.18-1.06a.2.2,0,0,1,.31,0,2.85,2.85,0,0,1-.32,1.24Z" style="fill:#181818"/><path d="M55.49,96l-.75.6a1,1,0,0,1,.58-.77Z" style="fill:#171717"/><path d="M84.15,94.67c.3-.23.51-.12.93.16Z" style="fill:#181818"/><path d="M52,97.21c-.35.36,0,.72,0,1.07a18.36,18.36,0,0,1-1.71,8.19c-.09-3.3-2.11-5.62-3.82-8.12-2.24-3.27-5.35-5.56-8.55-7.78-1.12-.77-2.1-1.73-3.26-2.45-2.81-1.76-3.91-.8-4.43,2a44,44,0,0,0-.56,7.78c0,1.88-.1,3.76-.17,5.64A16.84,16.84,0,0,0,30.86,111c.06.14.24.29,0,.46a14.68,14.68,0,0,1-2.25-7.11c0-3.47.2-6.93.51-10.39.2-2.27.35-4.54.71-6.79.3-1.88,1.4-2.37,3-1.36s3.06,2.46,4.73,3.52a28.78,28.78,0,0,0,8,3.9,12.68,12.68,0,0,1,6,3.42A5.56,5.56,0,0,1,52,97.21Z" style="fill:#333"/><path d="M35.32,117.58a2.52,2.52,0,0,1,.25.21,4.21,4.21,0,0,1,.29.42,1.21,1.21,0,0,1-.76-.63Z" style="fill:#262626"/><path d="M42.07,153.84c.21.11.48.14.61.44a.72.72,0,0,1-.79-.27Z" style="fill:#121212"/><path d="M115.11,181l-3.24.76-.06-.28a15.57,15.57,0,0,1,3.27-.68.13.13,0,0,1,.06.13C115.13,181,115.12,181,115.11,181Z" style="fill:#1c1c1c"/><path d="M111.41,181.86l-1.07.18A.71.71,0,0,1,111.41,181.86Z" style="fill:#282828"/><path d="M113.19,178.61H115a4.38,4.38,0,0,1-1.8.12Z" style="fill:#040404"/><path d="M117,180.64l-1,.17c-.06,0-.08-.07-.06-.11s0-.06.06-.06a1.58,1.58,0,0,1,1-.13s0,.07,0,.1A.09.09,0,0,1,117,180.64Z" style="fill:#2b2b2b"/><path d="M116,180.64a.48.48,0,0,0,0,.17l-.86.17,0-.2A1.69,1.69,0,0,1,116,180.64Z" style="fill:#111"/><path d="M113.19,178.61v.12h-.91v-.12Z" style="fill:#272727"/><path d="M117,180.64a.5.5,0,0,1,0-.13c.17-.28.43-.2.83-.12Z" style="fill:#787878"/><path d="M109.29,182.18c.14-.15.43-.25.48-.14s-.18.17-.32.19S109.35,182.2,109.29,182.18Z" style="fill:#4f4f4f"/><path d="M39.1,163c-1.05.53-21-1-24.24-1.75A104.63,104.63,0,0,1,39.1,163Z" style="fill:#cbcbcb"/><path d="M66.29,166.21a5,5,0,0,1-2.76,0Z" style="fill:gray"/><path d="M62.63,166a.78.78,0,0,1-1,0Z" style="fill:#818181"/><path d="M54.43,172.32a.58.58,0,0,1-.84,0Z" style="fill:#878787"/><path d="M58.78,181.21c.31.19,1-.44,1.07.32s-.67.35-1,.39c-2.15.26-2.15.23-2.28-1.9a5.19,5.19,0,0,0-.08-1.12c-.27-.91.09-1.21,1-1.18.52,0,1-.07,1.56-.11.22,0,.47-.11.51.26s-.12.47-.43.49-.81.06-1.22.06-.54.2-.51.61.3.41.61.38l1.13-.12c.21,0,.39,0,.42.29s-.09.42-.38.44a4.32,4.32,0,0,0-.87.11c-.32.07-.86-.23-.81.53s.4.73.93.59A3.35,3.35,0,0,1,58.78,181.21Z" style="fill:#fa6f0e"/><path d="M52.71,179.44c0-.29-.05-.58-.09-.86s.14-.39.39-.44.42.06.45.35c.07.81.17,1.61.21,2.42,0,.54.21.78.79.66a7.36,7.36,0,0,1,.95,0c.26,0,.44,0,.45.35s-.2.37-.45.37h-.09c-.79-.21-1.85.78-2.37-.24a7.29,7.29,0,0,1-.26-2.56Z" style="fill:#f86e0e"/><path d="M60.39,177l-.16.19c-.36-.72-1-.49-1.59-.48-.16,0-.23,0-.15-.19C59.19,176.41,59.94,176.1,60.39,177Z" style="fill:#ea6811"/><path d="M58.49,176.51l.15.19c-.15.15-.44.23-.5.09S58.34,176.57,58.49,176.51Z" style="fill:#522208"/><path d="M53.89,177.16c0-.1,0-.21,0-.31l.8.31Z" style="fill:#381609"/><path d="M62.6,180.93c-.49.2-.53-.19-.61-.64s.3-.51.62-.52,1.12-.25,1.19.47S63.17,180.81,62.6,180.93Z" style="fill:#0a0a0a"/><path d="M62.66,178c.37,0,.84-.09.83.41,0,.75-.71.51-1.14.62s-.45-.31-.47-.59C61.84,177.79,62.41,178.18,62.66,178Z" style="fill:#060606"/><path d="M73.64,179.24c0,.43-.36.51-.7.56l-.19-1.58.14-.06Z" style="fill:#131313"/><path d="M69.18,178c.12.26.27.5.36.76s.36.43.09.58a1.06,1.06,0,0,1-.82.06c-.23-.11,0-.41,0-.61S68.85,178.18,69.18,178Z" style="fill:#1d1d1d"/><path d="M77.77,176.81c0,.38-.2.43-.5.36A.52.52,0,0,1,77.77,176.81Z" style="fill:#1c1c1c"/><path d="M71.55,170.58l0,.18a.85.85,0,0,0-.68.3l-4.16,2.12c-.12-.6-.79-.49-1.09-.86A58.49,58.49,0,0,1,71.55,170.58Z" style="fill:#65276b"/><path d="M71.88,170.38l-.16.05-.54-.05c-.26-.2-.6,0-.87-.16h-.18c-.32-.22-.71,0-1-.17h-.36c-.08-.16-.45,0-.35-.35v-.17c.08-.09.12-.21.25-.25a3.79,3.79,0,0,0,1.85-.28l.18-.15c.11-.23.24-.37.49-.18C70.88,169.46,71.64,169.81,71.88,170.38Z" style="fill:#cb2225"/><path d="M68.39,169.69l.35.35H67.68a1,1,0,0,0,0-.17Z" style="fill:#a3174b"/><path d="M69.1,170c.34.05.73-.14,1,.17C69.78,170.17,69.4,170.35,69.1,170Z" style="fill:#a91345"/><path d="M70.31,170.22c.3,0,.63-.12.87.16C70.89,170.36,70.56,170.49,70.31,170.22Z" style="fill:#a4104e"/><path d="M71.16,168.66l-.49.18c-.09-.18-.38-.17-.43-.5.39,0,.76-.18,1.11.13Z" style="fill:#1c0f10"/><path d="M68.57,169.34l-.18.18v-1.06c.25.19.15.47.17.71.07,0,.09.08.07.11S68.59,169.34,68.57,169.34Z" style="fill:#b11f28"/><path d="M68.57,169.34v-.17c.66.11,1.28-.24,1.93-.18A2.14,2.14,0,0,1,68.57,169.34Z" style="fill:#af2631"/><path d="M71.2,184.08c0-.46-.14-.82.49-.81s.88.48.92,1.06-.26,1-.89.95C70.79,185.2,71.46,184.39,71.2,184.08Z" style="fill:#090909"/><path d="M54.62,185.93l-.51-.05.26-1C54.53,185.28,55.08,185.46,54.62,185.93Z" style="fill:#111"/><path d="M68.07,184l.3-.34a2.86,2.86,0,0,0,.15.41c.44.74.07.82-.58.71Z" style="fill:#414141"/><path d="M81.14,182.64c.32,0,.3.36.48.5-.05.19.32.42,0,.57a.73.73,0,0,1-.56,0c-.22-.11-.05-.34,0-.52S81.11,182.83,81.14,182.64Z" style="fill:#4f4f4f"/><path d="M95,253c1-2.38-.18-4.23-1.64-6.05,2.67.28,3.6,3.7,1.84,6.24C95.07,253.22,95,253.18,95,253Z" style="fill:#050505"/><path d="M95,253l.2.19c0,.25-.25.36-.46.5A.77.77,0,0,1,95,253Z" style="fill:#575757"/><path d="M54.71,109.53c2.64-3.08,5.63-5.28,9.79-5.4a52.33,52.33,0,0,1,6.86.44,6.08,6.08,0,0,0,2.25,0c.48-.12.51.08.48.49-.16,2.21-.15,2.23-2.37,1.89a59.48,59.48,0,0,0-6.39-.72,14.63,14.63,0,0,0-9.62,2.92A1.17,1.17,0,0,1,54.71,109.53Z" style="fill:#1a1a1a"/><path d="M65,121.63a18.82,18.82,0,0,1-8-2.58,1.54,1.54,0,0,1-.85-1.72,8.71,8.71,0,0,1,7.51-7.58,15.89,15.89,0,0,1,3.71-.37,2.87,2.87,0,0,1,2.8,1.83,16.37,16.37,0,0,1,1.38,6.23,3.55,3.55,0,0,1-2.58,3.62A11.74,11.74,0,0,1,65,121.63Z" style="fill:#010101"/><path d="M77.36,128.14c-2.4,1.86-14.44.19-17-3.06C65.63,128.26,71.41,128.66,77.36,128.14Z" style="fill:#ccc"/><path d="M73.71,119.15a23.28,23.28,0,0,1,4.92,2.25A15.81,15.81,0,0,1,73.71,119.15Z" style="fill:#b6b6b6"/><path d="M59.17,124.41c.21.08.44.13.56.34,0,0-.09.1-.1.09-.18-.09-.34-.19-.51-.29C59.11,124.54,59.15,124.46,59.17,124.41Z" style="fill:#d9d9d9"/><path d="M38.07,109.55a5.31,5.31,0,0,1-2.58-2.8c-.21-.92-.7-1.75-1-2.64a11.72,11.72,0,0,1-.58-2.86,1.81,1.81,0,0,0-.05-1.15,6,6,0,0,1,0-3.35c.09-.37.22-.77.67-.81s.68.33.83.67c.57,1.29,1.08,2.62,1.58,4,.56,1.49,1,3,1.51,4.53a.4.4,0,0,1-.33.37c-.75-.17-.8-.94-1.21-1.4a.19.19,0,0,0-.1-.1.44.44,0,0,0,0,.15,10,10,0,0,1,.67,1.45l0,.17c0,.66.62,1.11.62,1.78a.31.31,0,0,1-.26.22c-.21,0-.36-.1-.34-.36C37.5,108.16,38.25,108.74,38.07,109.55Z" style="fill:#333"/><path d="M37.56,105.56c-.63-.33-.55-1.08-.89-1.58,0-.29.13-.34.34-.13l1,1.53c.22.15.28,0,.35-.17a14.21,14.21,0,0,1-.84-2.34c-.76-2-1.49-4-2.24-6-.14-.38-.35-.84-.79-.77s-.38.58-.47.94a6.42,6.42,0,0,0,0,3.08,1.74,1.74,0,0,1,0,1,16.29,16.29,0,0,0,1.47,5.11.35.35,0,0,1-.06.47A15.78,15.78,0,0,1,33.55,96c.08-.44.05-1,.63-1.13s1,.31,1.19.8a44.42,44.42,0,0,1,2.75,7.48c.29,1,.68,2,1,3.06.16.61.84.85,1,1.52C38.88,107.38,38.47,106.18,37.56,105.56Z" style="fill:#020202"/><path d="M38.07,109.55a5.93,5.93,0,0,1-.7-2.33l.49.43c.73.38,1.06,1.17,1.71,1.62.2.21.47.42,0,.68-.29,0-.43-.38-.79-.32,0,.35.32.43.44.65s0,.24-.19.17Z" style="fill:#060606"/><path d="M39.62,110c.18-.26,0-.4-.16-.55-.15-.47-.86-.6-.75-1.23a.15.15,0,0,1,.22,0c.73.9,1.65,1.62,2.44,2.52A3.07,3.07,0,0,1,39.62,110Z" style="fill:#0a0a0a"/><path d="M38.07,107.45c-.11-.6-.7-1-.54-1.72l.9,1.71a.2.2,0,0,1,0,.22C38.24,107.73,38.15,107.61,38.07,107.45Z" style="fill:#151515"/><path d="M40.74,111.1c.27,0,.57,0,.76.33a1,1,0,0,1-1-.15C40.49,111.11,40.55,111,40.74,111.1Z" style="fill:#1b1b1b"/><path d="M39.08,110.45l.19-.17.73.49c0,.11-.12.12-.19.18A1.55,1.55,0,0,1,39.08,110.45Z" style="fill:#2f2f2f"/><path d="M39.81,111l.19-.18.74.33-.23.18Z" style="fill:#262626"/><path d="M38.41,107.66l0-.22.5.73h-.18C38.38,108.17,38.24,108,38.41,107.66Z" style="fill:#181818"/><path d="M75.7,137.8a3.54,3.54,0,0,0,.18.49c.37.66.58.67,1.05.05a4.14,4.14,0,0,1,.35-.38c.14,0,.33,0,.31.23-.06.62-.6.87-1,1.22-.2.19-.42.12-.62,0a1.89,1.89,0,0,1-.81-1.37C75.15,137.66,75.51,137.85,75.7,137.8Z" style="fill:#cdcdcd"/><path d="M79.58,116c1.19.42,1.92,0,2.4-1.33a6.37,6.37,0,0,0,.21-1.09c.44-.32.84-.34,1.17.15a4.56,4.56,0,0,1-.8,2.41,2,2,0,0,1-2,.88A1,1,0,0,1,79.58,116Z" style="fill:#0303fa"/><path d="M83.36,113.73a2.13,2.13,0,0,0-1.17-.15L82,112.7c.3-.6.75-1.16.4-1.89,0-.17-.24-.3-.17-.52.75-.35,1-.22,1.19.59A7.8,7.8,0,0,1,83.36,113.73Z" style="fill:#0d0cb0"/><path d="M82.52,110.59c.4,1.15.3,1.53-.57,2.11-.54,0-1.07,0-1.2-.68a.66.66,0,0,0,0-.55h0c.36-.18.57-.59,1-.71l0,0A.54.54,0,0,1,82.52,110.59Z" style="fill:#fafafa"/><path d="M81.74,110.77c-.35.22-.48.72-1,.71C81,111.14,81.19,110.71,81.74,110.77Z" style="fill:#4d47c8"/><path d="M82.52,110.59c-.29-.08-.51.09-.75.2-.07-.33.17-.42.41-.5Z" style="fill:#5955d5"/><path d="M91.9,126a4,4,0,0,1-2.4,0Z" style="fill:#7a7a7a"/><path d="M87.6,91.94a32,32,0,0,1-.09-4.16,5.41,5.41,0,0,0-2.25,1.64c-.88,1-1.73,1.93-2.61,2.89-.23.24-.42.57-.84.53a31.56,31.56,0,0,1,4.29-4.73c.42-.34.86-.93,1.47-.65s.38,1,.31,1.49A18.68,18.68,0,0,1,87.6,91.94Z" style="fill:#060606"/><path d="M87.73,93.34h-.31a2.52,2.52,0,0,0,.17-1C87.86,92.63,87.69,93,87.73,93.34Z" style="fill:#020202"/><path d="M65.6,120.36A19.26,19.26,0,0,1,57,118.29a.8.8,0,0,1-.52-1c.6-4.31,3.56-6.19,7.31-6.84a10.71,10.71,0,0,1,3.79-.22,2.66,2.66,0,0,1,2,1.38A12.84,12.84,0,0,1,71,116.48c.25,2.53-.78,3.26-3,3.67A20.58,20.58,0,0,1,65.6,120.36Z" style="fill:#fefefe"/><path d="M38.41,107.66a.52.52,0,0,0,.34.51c0,.53.7.68.71,1.23a6.67,6.67,0,0,1-1.6-1.75l.21-.2Z" style="fill:#434343"/><path d="M38.39,105.21l.16.56c-.3,0-.38-.22-.51-.39Z" style="fill:#424242"/><path d="M34.08,101.17c0-.34,0-.67,0-1A.8.8,0,0,1,34.08,101.17Z" style="fill:#4b4b4b"/><path d="M37,103.85a.26.26,0,0,0-.34.13c-.2-.14-.16-.31,0-.39S37,103.69,37,103.85Z" style="fill:#3e3e3e"/><path d="M67,114.79a4.77,4.77,0,0,1-1.4,4.8,1.33,1.33,0,0,1-.79.34,10,10,0,0,1-3.12-.32,2.55,2.55,0,0,1-1.82-2.72c.14-.32.33-.55.73-.43s.39.62.53,1a1.68,1.68,0,0,0,1.74,1.15,1.49,1.49,0,0,0,1.53-1.14c.16-.41.21-.84.38-1.24s.15-1.36,1.06-1.39C66.21,114.77,66.59,114.53,67,114.79Z" style="fill:#0101fc"/><path d="M62.65,112.67c.06-.91.09-.87.85-.86.18,0,.36-.4.55,0,1.18.27,1.41,1.15.6,2.34a1.35,1.35,0,0,1-1.64.23,1.19,1.19,0,0,1-.71-1.31C62.33,112.9,62.51,112.8,62.65,112.67Z" style="fill:#f9f9fa"/><path d="M64.53,114.07c.64-.92.6-1.85-.48-2.21,1.57-.2,2.69.93,2.93,2.93l-1.2.18c-.28.14-.58,0-.87.1C64.44,114.87,64.47,114.48,64.53,114.07Z" style="fill:#0908ae"/><path d="M60.55,116.52c-.31,0-.45.27-.7.37a2.85,2.85,0,0,1,1.52-3.54l.09.1C60.74,114.35,60.9,115.51,60.55,116.52Z" style="fill:#0d0cac"/><path d="M62.65,112.67c0,.16-.09.24-.18.33-.27.33-.55.62-1,.4a.18.18,0,0,0-.07-.05C61.76,113.05,62.09,112.66,62.65,112.67Z" style="fill:#00b"/><path d="M61.44,113.4l1-.4c.13,1.4.76,1.73,2.06,1.07l.39.89a1.52,1.52,0,0,1,0,1.22c-.09.39-.17.79-.29,1.17-.36,1.1-.79,1.45-1.75,1.46a1.85,1.85,0,0,1-2-1.47c-.1-.27-.19-.54-.29-.82C60.47,115.38,60.39,114.23,61.44,113.4Z" style="fill:#000001"/><path d="M64.93,116.18V115h.86C65.05,115.06,65.35,115.87,64.93,116.18Z" style="fill:#0101ee"/><text transform="translate(15.42 60.29)" style="font-size:51.3490104675293px;fill:#2900f9;font-family:CarterOne, Carter One"><tspan style="letter-spacing:-0.0043931895755352475em">L<tspan x="25.4" y="0" style="letter-spacing:-0.000009509068345314388em">ebianch</tspan></tspan><tspan x="109.84" y="61.62">Li</tspan><tspan x="150.81" y="61.62" style="letter-spacing:-0.005382132683447944em">s</tspan><tspan x="172.12" y="61.62" style="letter-spacing:-0.004868642992800967em">t</tspan><tspan x="195.29" y="61.62">a</tspan><tspan x="133.09" y="123.24" style="letter-spacing:-0.01757275830214099em">U</tspan><tspan x="166.73" y="123.24">rls</tspan></text></g></g></svg>